<?xml version="1.0" standalone="no"?>
<!DOCTYPE svg PUBLIC "-//W3C//DTD SVG 1.1//EN" "http://www.w3.org/Graphics/SVG/1.1/DTD/svg11.dtd" >
<!--
2013-9-30: Created.
-->
<svg>
<metadata>
Created by iconfont
</metadata>
<defs>

<font id="iconfont" horiz-adv-x="1024" >
  <font-face
    font-family="iconfont"
    font-weight="500"
    font-stretch="normal"
    units-per-em="1024"
    ascent="896"
    descent="-128"
  />
    <missing-glyph />
    
    <glyph glyph-name="shijian" unicode="&#59236;" d="M512 832c247.424 0 448-200.576 448-448S759.424-64 512-64 64 136.576 64 384 264.576 832 512 832z m0-48C291.0864 784 112 604.9136 112 384s179.0864-400 400-400 400 179.0864 400 400S732.9136 784 512 784z m0-144.0528c13.2544 0 24-10.744 24-24v-222.28l109.5568-113.936c9.1872-9.5536 8.8896-24.7472-0.664-33.9344-9.5536-9.1872-24.7472-8.8896-33.936 0.6656l-116.256 120.9024A24 24 0 0 0 488 384V615.9472c0 13.256 10.7456 24 24 24z"  horiz-adv-x="1024" />

    
    <glyph glyph-name="guanbi" unicode="&#59237;" d="M919.2928 791.2928c9.3728-9.3712 9.3728-24.568 0-33.9408L545.9408 384l373.352-373.352c9.3728-9.3728 9.3728-24.5696 0-33.9408-9.3712-9.3728-24.568-9.3728-33.9408 0L512 350.0592 138.648-23.2928c-9.3728-9.3728-24.5696-9.3728-33.9408 0-9.3728 9.3712-9.3728 24.568 0 33.9408L478.0592 384 104.7072 757.352c-9.3728 9.3728-9.3728 24.5696 0 33.9408 9.3712 9.3728 24.568 9.3728 33.9408 0L512 417.9408 885.352 791.2928c9.3728 9.3728 24.5696 9.3728 33.9408 0z"  horiz-adv-x="1024" />

    
    <glyph glyph-name="yincang" unicode="&#59238;" d="M832.1776 704.1776c9.3728-9.3728 9.3728-24.568 0-33.9408l-45.4144-45.4192C907.8096 544.0208 960 424.8656 960 384c0-64-128-320-448-320-93.088 0-169.9296 21.664-232.0976 53.9632l-54.1392-54.1408c-9.3728-9.3728-24.568-9.3728-33.9408 0-9.3728 9.3728-9.3728 24.568 0 33.9408l45.4144 45.4192C116.1904 223.9792 64 343.1344 64 384c0 64 128 320 448 320 93.088 0 169.9296-21.664 232.0976-53.9632l54.1392 54.1408c9.3728 9.3728 24.568 9.3728 33.9408 0z m-80.1024-114.0432l-111.24-111.2416C660.4224 452.344 672 419.5232 672 384c0-88.3648-71.6352-160-160-160-35.5248 0-68.3456 11.5776-94.8944 31.1648l-101.392-101.392a410.816 410.816 0 0 1 10.5664-4.816C381.1104 124.9104 442.9392 112 512 112s130.8896 12.9088 185.72 36.9584c47.664 20.904 89.2784 49.9216 124.3392 84.9824 29.6944 29.696 53.6464 62.7712 70.2704 95.04 6.96 13.5104 12.2944 26.2768 15.7536 37.2864 1.488 4.7312 2.5664 8.952 3.232 12.48 0.488 2.592 0.6848 4.44 0.6848 5.2528s-0.1968 2.6608-0.6864 5.2528c-0.664 3.528-1.744 7.7488-3.2304 12.48-3.4592 11.0096-8.7952 23.776-15.7536 37.2848-16.624 32.2704-40.576 65.3472-70.272 95.04-21.0096 21.0128-44.3744 39.8528-69.984 56.0768zM512 656c-69.0608 0-130.8896-12.9088-185.72-36.9584-47.664-20.904-89.2784-49.9216-124.3392-84.9824-29.6944-29.696-53.6464-62.7712-70.2704-95.04-6.96-13.5104-12.2944-26.2768-15.7536-37.2864-1.488-4.7312-2.5664-8.952-3.232-12.48-0.488-2.592-0.6848-4.44-0.6848-5.2528s0.1968-2.6608 0.6864-5.2528c0.664-3.528 1.744-7.7488 3.2304-12.48 3.4592-11.0096 8.7952-23.776 15.7536-37.2848 16.624-32.2704 40.576-65.3472 70.272-95.04 21.0096-21.0128 44.3744-39.8528 69.984-56.0768l111.2368 111.2416C363.5776 315.656 352 348.4768 352 384c0 88.3648 71.6352 160 160 160 35.5248 0 68.3456-11.5776 94.8944-31.1648l101.392 101.392a410.816 410.816 0 0 1-10.5664 4.816C642.8896 643.0896 581.0608 656 512 656z m94.336-211.6048l-154.7312-154.7328C469.0304 278.4832 489.7584 272 512 272c61.856 0 112 50.144 112 112 0 22.2416-6.4832 42.9696-17.664 60.3952zM512 496c-61.856 0-112-50.144-112-112 0-22.2416 6.4832-42.9696 17.664-60.3952l154.7312 154.7328C554.9696 489.5168 534.2416 496 512 496z"  horiz-adv-x="1024" />

    
    <glyph glyph-name="wo" unicode="&#59239;" d="M512.8 800C634.304 800 732.8 701.504 732.8 580c0-79.704-42.384-149.5088-105.8464-188.104l0.0016 0.016C800.7952 342.0352 928 181.872 928-8c0-13.2544-10.7456-24-24-24-13.2544 0-24 10.7456-24 24 0 203.24-164.76 368-368 368S144 195.24 144-8c0-13.2544-10.7456-24-24-24-13.2544 0-24 10.7456-24 24 0 190.2672 127.736 350.7008 302.1312 400.224C334.9568 430.8688 292.8 500.512 292.8 580 292.8 701.504 391.296 800 512.8 800z m0-48C417.808 752 340.8 674.992 340.8 580S417.808 408 512.8 408 684.8 485.008 684.8 580 607.792 752 512.8 752z"  horiz-adv-x="1024" />

    
    <glyph glyph-name="jia" unicode="&#59240;" d="M512 830.4c247.424 0 448-200.576 448-448S759.424-65.6 512-65.6 64 134.976 64 382.4 264.576 830.4 512 830.4z m0-48C291.0864 782.4 112 603.3136 112 382.4s179.0864-400 400-400 400 179.0864 400 400S732.9136 782.4 512 782.4z m0-209.6c13.2544 0 24-10.7456 24-24v-144h144c13.2544 0 24-10.7456 24-24 0-13.2544-10.7456-24-24-24h-144.0016l0.0016-144c0-13.2544-10.7456-24-24-24-13.2544 0-24 10.7456-24 24l-0.0016 144H344c-13.2544 0-24 10.7456-24 24 0 13.2544 10.7456 24 24 24h144v144c0 13.2544 10.7456 24 24 24z"  horiz-adv-x="1024" />

    
    <glyph glyph-name="jian" unicode="&#59241;" d="M512 830.4c247.424 0 448-200.576 448-448S759.424-65.6 512-65.6 64 134.976 64 382.4 264.576 830.4 512 830.4z m0-48C291.0864 782.4 112 603.3136 112 382.4s179.0864-400 400-400 400 179.0864 400 400S732.9136 782.4 512 782.4z m168-377.6c13.2544 0 24-10.7456 24-24 0-13.2544-10.7456-24-24-24H344c-13.2544 0-24 10.7456-24 24 0 13.2544 10.7456 24 24 24h336z"  horiz-adv-x="1024" />

    
    <glyph glyph-name="zhushi" unicode="&#59242;" d="M512 832c247.424 0 448-200.576 448-448S759.424-64 512-64 64 136.576 64 384 264.576 832 512 832z m0-48C291.0864 784 112 604.9136 112 384s179.0864-400 400-400 400 179.0864 400 400S732.9136 784 512 784z m0-304c13.2544 0 24-10.7456 24-24v-288c0-13.2544-10.7456-24-24-24-13.2544 0-24 10.7456-24 24V456c0 13.2544 10.7456 24 24 24z m0 144c26.5104 0 48-21.4896 48-48 0-26.5104-21.4896-48-48-48-26.5104 0-48 21.4896-48 48 0 26.5104 21.4896 48 48 48z"  horiz-adv-x="1024" />

    
    <glyph glyph-name="jiantou" unicode="&#59243;" d="M441.12 753.9584c9.3728-9.3728 9.3728-24.568 0-33.9408L116.8768 395.7744c-6.5024-6.5024-6.5024-17.0464 0-23.5488L441.12 47.9824c9.3728-9.3728 9.3728-24.568 0-33.9408-9.3728-9.3728-24.568-9.3728-33.9408 0L82.936 338.2848c-25.248 25.248-25.248 66.1824 0 91.4304L407.1792 753.9584c9.3728 9.3728 24.568 9.3728 33.9408 0zM432 432c26.5104 0 48-21.4896 48-48 0-26.5104-21.4896-48-48-48-26.5104 0-48 21.4896-48 48 0 26.5104 21.4896 48 48 48z m480 0c26.5104 0 48-21.4896 48-48 0-26.5104-21.4896-48-48-48-26.5104 0-48 21.4896-48 48 0 26.5104 21.4896 48 48 48z m-320 0c26.5104 0 48-21.4896 48-48 0-26.5104-21.4896-48-48-48-26.5104 0-48 21.4896-48 48 0 26.5104 21.4896 48 48 48z m160 0c26.5104 0 48-21.4896 48-48 0-26.5104-21.4896-48-48-48-26.5104 0-48 21.4896-48 48 0 26.5104 21.4896 48 48 48z"  horiz-adv-x="1024" />

    
    <glyph glyph-name="dui" unicode="&#59244;" d="M512 830.4c247.424 0 448-200.576 448-448S759.424-65.6 512-65.6 64 134.976 64 382.4 264.576 830.4 512 830.4z m0-48C291.0864 782.4 112 603.3136 112 382.4s179.0864-400 400-400 400 179.0864 400 400S732.9136 782.4 512 782.4z m149.568-279.12c8.488 10.1808 23.6224 11.552 33.8016 3.0624 10.1792-8.4896 11.5504-23.624 3.0608-33.8032L522.96 262.128c-22.72-27.0768-63.088-30.608-90.1648-7.888l-104.1984 87.4336c-10.1552 8.52-11.4784 23.6576-2.96 33.8112 8.5216 10.1536 23.6592 11.4784 33.8128 2.96l104.1984-87.4352c6.7696-5.68 16.8624-4.7968 22.496 1.9168z"  horiz-adv-x="1024" />

    
    <glyph glyph-name="shuangjiantou" unicode="&#59245;" d="M857.12 753.9584c9.3728-9.3728 9.3728-24.568 0-33.9408L532.8768 395.7744c-6.5024-6.5024-6.5024-17.0464 0-23.5488L857.12 47.9824c9.3728-9.3728 9.3728-24.568 0-33.9408-9.3728-9.3728-24.568-9.3728-33.9408 0L498.936 338.2848c-25.248 25.248-25.248 66.1824 0 91.4304L823.1792 753.9584c9.3728 9.3728 24.568 9.3728 33.9408 0z m-320 0c9.3728-9.3728 9.3728-24.568 0-33.9408L212.8768 395.7744c-6.5024-6.5024-6.5024-17.0464 0-23.5488L537.12 47.9824c9.3728-9.3728 9.3728-24.568 0-33.9408-9.3728-9.3728-24.568-9.3728-33.9408 0L178.936 338.2848c-25.248 25.248-25.248 66.1824 0 91.4304L503.1792 753.9584c9.3728 9.3728 24.568 9.3728 33.9408 0z"  horiz-adv-x="1024" />

    
    <glyph glyph-name="shangyi" unicode="&#59246;" d="M872-16.0064c13.2544 0 24-10.7456 24-24 0-13.256-10.7456-24-24-24H152c-13.2544 0-24 10.744-24 24 0 13.2544 10.7456 24 24 24h720zM555.904 814.2384l0.744-0.7328 333.2304-333.2288c9.3728-9.3728 9.3728-24.5696 0-33.9424-9.2352-9.2336-24.1232-9.3696-33.5248-0.4064l-0.416 0.4064L537.6 764.672v-676.6784c0-13.256-10.7456-24-24-24-13.2544 0-24 10.744-24 24V767.872L168.064 446.3344c-9.3728-9.3728-24.5696-9.3728-33.9424 0-9.2336 9.2352-9.3696 24.1232-0.4064 33.5248l0.4064 0.416 333.232 333.232c24.4112 24.4112 63.8384 24.656 88.5488 0.7312z"  horiz-adv-x="1024" />

    
    <glyph glyph-name="xiangyou" unicode="&#59247;" d="M64 384c0 13.2544 10.744 24 24 24h806.272L574.336 727.936c-9.2352 9.2352-9.3712 24.1232-0.408 33.5232l0.408 0.4176c9.3728 9.3728 24.568 9.3728 33.9408 0l333.232-333.2304c24.656-24.6576 24.656-64.6368 0-89.296l-333.232-333.2288c-9.3728-9.3728-24.568-9.3728-33.9408 0-9.3728 9.3728-9.3728 24.568 0 33.9408l319.936 319.936H88c-13.256 0-24 10.7456-24 24z"  horiz-adv-x="1024" />

    
    <glyph glyph-name="dengru" unicode="&#59248;" d="M384-32c-35.3456 0-64 28.6544-64 64v95.9728c0 13.256 10.7456 24 24 24 13.2544 0 24-10.744 24-24V32c0-8.8368 7.1632-16 16-16h480c8.8368 0 16 7.1632 16 16V736c0 8.8368-7.1632 16-16 16H384c-8.8368 0-16-7.1632-16-16v-95.7184c0-13.2544-10.7456-24-24-24-13.2544 0-24 10.7456-24 24V736c0 35.3456 28.6544 64 64 64h480c35.3456 0 64-28.6544 64-64v-704c0-35.3456-28.6544-64-64-64z m128.1136 167.2592c-9.3728 9.3728-9.3728 24.568 0 33.9408L702.912 360H120c-13.2544 0-24 10.7456-24 24 0 13.2544 10.7456 24 24 24h582.912L512.1136 598.8c-9.3728 9.3728-9.3728 24.568 0 33.9408 9.3728 9.3728 24.568 9.3728 33.9408 0l203.4864-203.4864c24.9936-24.992 24.9936-65.5152 0-90.5088L546.0544 135.2592c-9.3728-9.3728-24.568-9.3728-33.9408 0z"  horiz-adv-x="1024" />

    
    <glyph glyph-name="bangzhu" unicode="&#59249;" d="M512 832c247.424 0 448-200.576 448-448S759.424-64 512-64 64 136.576 64 384 264.576 832 512 832z m0-48C291.0864 784 112 604.9136 112 384s179.0864-400 400-400 400 179.0864 400 400S732.9136 784 512 784z m0-544c26.5104 0 48-21.4896 48-48 0-26.5104-21.4896-48-48-48-26.5104 0-48 21.4896-48 48 0 26.5104 21.4896 48 48 48z m0 384c70.6928 0 128-57.3072 128-128 0-34.408-13.6704-66.7104-37.528-90.5472-0.616-0.6144-10.9632-10.8336-14.6448-14.536-6.6928-6.7296-12.592-12.8864-18.152-19.024-8.0912-8.9296-14.9632-17.28-20.4576-25.0048-8.616-12.1152-13.0512-21.7712-13.2128-26.6192L536 320v-8.8944c0-13.2544-10.7456-24-24-24-13.088 0-23.728 10.4752-23.9952 23.4992l-0.0048 0.5008V320c0 17.2112 8.0272 34.9184 22.1024 54.7088 6.7104 9.4336 14.736 19.1872 24.0016 29.4144 6.1184 6.752 12.512 13.424 19.688 20.64 3.872 3.8928 14.2928 14.184 14.752 14.6448C583.4816 454.3312 592 474.4608 592 496c0 44.1824-35.8176 80-80 80s-80-35.8176-80-80c0-13.2544-10.7456-24-24-24-13.2544 0-24 10.7456-24 24 0 70.6928 57.3072 128 128 128z"  horiz-adv-x="1024" />

    
    <glyph glyph-name="daoru" unicode="&#59250;" d="M904 320c13.088 0 23.728-10.4752 23.9952-23.4976L928 296v-264c0-34.992-28.0832-63.4256-62.9424-63.992L864-32H160c-34.992 0-63.4256 28.0832-63.992 62.9424L96 32V296c0 13.2544 10.7456 24 24 24 13.088 0 23.728-10.4752 23.9952-23.4976L144 296v-264c0-8.688 6.9232-15.7568 15.552-15.9936l0.448-0.0064h704c8.688 0 15.7568 6.9232 15.9936 15.552L880 32V296c0 13.2544 10.7456 24 24 24zM512 800c13.2544 0 24-10.7456 24-24v-582.912l190.8 190.7984c9.2352 9.2352 24.1232 9.3712 33.5232 0.408l0.4176-0.408c9.3728-9.3728 9.3728-24.568 0-33.9408L557.2544 146.4592c-24.992-24.9936-65.5152-24.9936-90.5088 0L263.2592 349.9456c-9.3728 9.3728-9.3728 24.568 0 33.9408 9.3728 9.3728 24.568 9.3728 33.9408 0L488 193.0864V776c0 13.2544 10.7456 24 24 24z"  horiz-adv-x="1024" />

    
    <glyph glyph-name="daochu" unicode="&#59251;" d="M904 320c13.2544 0 24-10.7456 24-24v-264c0-35.3456-28.6544-64-64-64H160c-35.3456 0-64 28.6544-64 64V296c0 13.2544 10.7456 24 24 24 13.2544 0 24-10.7456 24-24v-264c0-8.8368 7.1632-16 16-16h704c8.8368 0 16 7.1632 16 16V296c0 13.2544 10.7456 24 24 24zM557.2544 781.2544l203.4864-203.4848c9.3728-9.3728 9.3728-24.5696 0-33.9424-9.3728-9.3728-24.568-9.3728-33.9408 0L536 734.6272v-582.912c0-13.256-10.7456-24-24-24-13.2544 0-24 10.744-24 24v582.912l-190.8-190.8c-9.3728-9.3728-24.568-9.3728-33.9408 0-9.3728 9.3728-9.3728 24.5696 0 33.9424L466.7456 781.2544c24.992 24.9936 65.5152 24.9936 90.5088 0z"  horiz-adv-x="1024" />

    
    <glyph glyph-name="bi" unicode="&#59252;" d="M904 16c13.2544 0 24-10.7456 24-24 0-13.2544-10.7456-24-24-24H120c-13.2544 0-24 10.7456-24 24 0 13.2544 10.7456 24 24 24h784zM769.1152 748.3152c46.864-46.864 46.864-122.8432 0-169.7056L376.2384 185.7328a152 152 0 0 0-59.4128-36.72L202.56 110.9264c-29.3408-9.7792-61.0544 6.0768-70.8352 35.4176a56 56 0 0 0 0 35.4176l38.0896 114.2656a152 152 0 0 0 36.72 59.4128L599.408 748.3152c46.864 46.864 122.8432 46.864 169.7056 0zM245.7168 326.7424l-5.2416-5.2448a104 104 0 0 1-25.1248-40.6512l-38.088-114.264a8 8 0 0 1 10.12-10.12l114.264 38.088a104 104 0 0 1 40.6512 25.1248l5.2416 5.2432-101.8224 101.824z m356 355.9984L279.6576 360.6832l101.824-101.824 322.0576 322.0592-101.8224 101.8224z m33.9936 33.8896l101.72-101.72c25.84 28.2528 25.088 72.12-2.256 99.464-27.344 27.344-71.2112 28.096-99.464 2.256z"  horiz-adv-x="1024" />

    
    <glyph glyph-name="jianshao" unicode="&#59253;" d="M88 408h848c13.2544 0 24-10.7456 24-24 0-13.2544-10.7456-24-24-24H88c-13.2544 0-24 10.7456-24 24 0 13.2544 10.7456 24 24 24z"  horiz-adv-x="1024" />

    
    <glyph glyph-name="zhiding" unicode="&#59254;" d="M555.904 686.0256l0.744-0.7312 333.2304-333.232c9.3728-9.3712 9.3728-24.568 0-33.9408-9.2352-9.2336-24.1232-9.3696-33.5248-0.4064l-0.416 0.4064L537.6 636.4592V-40c0-13.2544-10.7456-24-24-24-13.2544 0-24 10.7456-24 24V639.6608L168.064 318.1216c-9.3728-9.3728-24.5696-9.3728-33.9424 0-9.2336 9.2352-9.3696 24.1232-0.4064 33.5248l0.4064 0.416 333.232 333.232c24.4112 24.4112 63.8384 24.656 88.5488 0.7312zM872 832c13.2544 0 24-10.7456 24-24 0-13.2544-10.7456-24-24-24H152c-13.2544 0-24 10.7456-24 24 0 13.2544 10.7456 24 24 24h720z"  horiz-adv-x="1024" />

    
    <glyph glyph-name="cai" unicode="&#59255;" d="M544-32c63.312 0 105.072 30.5504 118.896 88.3216 11.4096 47.6928 3.8096 113.904-21.9616 199.6784h167.0048c66.2736 0 120 53.7264 120 120a120 120 0 0 1-1.9792 21.7008l-60.7168 330.2128C857.5648 769.6768 821.1584 800 778.6944 800H511.784c-40.5808 0-90.6256-10.0448-151.216-45.4352A136 136 0 0 0 291.976 736H152c-30.928 0-56-25.072-56-56v-368c0-30.928 25.072-56 56-56h128.7584c47.864 0 82.496-13.2688 108.4384-38.2784 21.6144-20.8368 37.2048-49.3392 51.1376-89.5744 3.184-9.1968 6.2352-18.8 9.8736-30.9008 1.2-3.9952 7.3424-24.7648 9.0784-30.4848 9.2816-30.5936 16.376-48.8912 26.2752-64.2224C499.7968-19.504 519.1296-32 544-32z m0 48c-13.824 0-23.8736 15.5664-38.7824 64.6976-1.6736 5.52-7.792 26.208-9.0432 30.3712-3.8128 12.6784-7.048 22.8688-10.4816 32.784-16.1856 46.7424-35.1408 81.392-63.1824 108.4256-30.4448 29.3488-69.5456 46.6832-118.5088 50.7776V688.3936a184 184 0 0 1 80.776 24.7232C438.6848 744.6048 481.3824 752 511.7856 752h266.9088c19.3024 0 35.8512-13.7824 39.3408-32.7664l60.7168-330.2128a72 72 0 0 0 1.1872-13.0208c0-39.7648-32.2352-72-72-72H616.9888a30.4 30.4 0 0 1-9.384-1.4848c-15.9696-5.184-24.7136-22.3296-19.5312-38.2992 29.008-89.3728 38.0272-155.3952 28.1392-196.7248C607.7328 32.0528 585.792 16 544 16zM256 688v-384H152a8 8 0 0 0-8 8V680a8 8 0 0 0 8 8h104z"  horiz-adv-x="1024" />

    
    <glyph glyph-name="zhidi" unicode="&#59256;" d="M468.096 81.9744l-0.744 0.7312-333.2304 333.232c-9.3728 9.3712-9.3728 24.568 0 33.9408 9.2352 9.2336 24.1232 9.3696 33.5248 0.4064l0.416-0.4064L486.4 131.5408V808c0 13.2544 10.7456 24 24 24 13.2544 0 24-10.7456 24-24v-679.6608l321.536 321.5392c9.3728 9.3728 24.5696 9.3728 33.9424 0 9.2336-9.2352 9.3696-24.1232 0.4064-33.5248l-0.4064-0.416-333.232-333.232c-24.4112-24.4112-63.8384-24.656-88.5488-0.7312zM152-64c-13.2544 0-24 10.7456-24 24 0 13.2544 10.7456 24 24 24h720c13.2544 0 24-10.7456 24-24 0-13.2544-10.7456-24-24-24H152z"  horiz-adv-x="1024" />

    
    <glyph glyph-name="tuichu" unicode="&#59257;" d="M536 800c35.3456 0 64-28.6544 64-64v-95.9728c0-13.256-10.7456-24-24-24-13.2544 0-24 10.744-24 24V736c0 8.8368-7.1632 16-16 16H160c-8.8368 0-16-7.1632-16-16v-704c0-8.8368 7.1632-16 16-16h376c8.8368 0 16 7.1632 16 16v95.7184c0 13.2544 10.7456 24 24 24 13.2544 0 24-10.7456 24-24V32c0-35.3456-28.6544-64-64-64H160c-35.3456 0-64 28.6544-64 64V736c0 35.3456 28.6544 64 64 64z m169.7696-167.2592l203.4848-203.4864c24.9936-24.992 24.9936-65.5152 0-90.5088L705.7696 135.2592c-9.3728-9.3728-24.5696-9.3728-33.9424 0-9.3728 9.3728-9.3728 24.568 0 33.9408L862.6272 360h-582.912c-13.256 0-24 10.7456-24 24 0 13.2544 10.744 24 24 24h582.912l-190.8 190.8c-9.3728 9.3728-9.3728 24.568 0 33.9408 9.3728 9.3728 24.5696 9.3728 33.9424 0z"  horiz-adv-x="1024" />

    
    <glyph glyph-name="xiangxia" unicode="&#59258;" d="M512 832c13.2544 0 24-10.7456 24-24v-806.272l319.936 319.936c9.2352 9.2336 24.1232 9.3696 33.5248 0.4064l0.416-0.4064c9.3744-9.3728 9.3744-24.5696 0-33.9424L556.6496-45.5088c-24.6592-24.6576-64.6368-24.6576-89.296 0L134.1216 287.7232c-9.3728 9.3712-9.3728 24.568 0 33.9408 9.3728 9.3712 24.5696 9.3712 33.9424 0L488 1.7264V808c0 13.2544 10.7456 24 24 24z"  horiz-adv-x="1024" />

    
    <glyph glyph-name="xiaoxi" unicode="&#59259;" d="M512 832c56.9856 0 105.136-39.8656 117.1328-93.8064C725.5024 704.2848 792 612.7104 792 508.032v-183.568a136 136 0 0 1 13.3856-58.8352l58.2544-121.4c13.3792-27.8848 1.6224-61.336-26.2624-74.7152A56 56 0 0 0 813.152 64l-151.0368-0.0016C650.608-8.5456 587.7792-64 512-64c-75.7808 0-138.608 55.456-150.1152 127.9984L210.848 64c-30.928 0-56 25.072-56 56a56 56 0 0 0 5.512 24.2272l58.2544 121.4A136 136 0 0 1 232 324.4624V508.032c0 104.6816 66.496 196.256 162.8688 230.1632C406.864 792.1344 455.0128 832 512 832z m101.216-768.0016H410.784C421.6192 18.1312 462.824-16 512-16s90.3808 34.1312 101.216 79.9984zM512 784c-37.5776 0-68.768-28.912-71.7632-66.112a24 24 0 0 0-17.4288-21.1776C339.008 673.152 280 596.3968 280 508.0304v-183.568a184 184 0 0 0-18.1104-79.6016l-58.2528-121.4A8 8 0 0 1 210.848 112h602.304a8 8 0 0 1 7.2112 11.4608l-58.2528 121.4A184 184 0 0 0 744 324.4624V508.032c0 88.3664-59.0064 165.1216-142.808 188.6816a24 24 0 0 0-17.4288 21.176C580.768 755.088 549.5776 784 512 784z"  horiz-adv-x="1024" />

    
    <glyph glyph-name="zhengque" unicode="&#59260;" d="M919.3968 650.5056c9.3728 9.3728 24.5696 9.3728 33.9424 0 9.3712-9.3728 9.3712-24.5696 0-33.9424l-488.016-488.0144c-24.992-24.992-65.5152-24.992-90.5088 0L71.216 432.1456c-9.3712 9.3728-9.3712 24.568 0 33.9408 9.3728 9.3728 24.5696 9.3728 33.9424 0l303.5952-303.5952c6.248-6.2496 16.3792-6.2496 22.6272 0l488.016 488.0144z"  horiz-adv-x="1024" />

    
    <glyph glyph-name="tianjia" unicode="&#59261;" d="M512 832c13.2544 0 24-10.7456 24-24v-400h400c13.2544 0 24-10.7456 24-24 0-13.2544-10.7456-24-24-24H536v-400c0-13.2544-10.7456-24-24-24-13.2544 0-24 10.7456-24 24V360H88c-13.2544 0-24 10.7456-24 24 0 13.2544 10.7456 24 24 24h400V808c0 13.2544 10.7456 24 24 24z"  horiz-adv-x="1024" />

    
    <glyph glyph-name="shang" unicode="&#59262;" d="M175.9792 198.9552c-9.3728-9.3728-24.5696-9.3728-33.9424 0-9.3712 9.3728-9.3712 24.568 0 33.9408l324.2432 324.2432c25.248 25.248 66.184 25.248 91.4304 0L881.9536 232.896c9.3728-9.3728 9.3728-24.568 0-33.9408-9.3728-9.3728-24.568-9.3728-33.9408 0L523.7696 523.1968c-6.5024 6.504-17.0448 6.504-23.5488 0L175.9792 198.9552z"  horiz-adv-x="1024" />

    
    <glyph glyph-name="jin" unicode="&#59263;" d="M512 832c247.424 0 448-200.576 448-448S759.424-64 512-64 64 136.576 64 384 264.576 832 512 832z m0-48C291.0864 784 112 604.9136 112 384s179.0864-400 400-400 400 179.0864 400 400S732.9136 784 512 784z m-33.04-212.4096l142.336-142.336c24.9936-24.992 24.9936-65.5152 0-90.5088l-141.7056-141.7056c-9.3728-9.3728-24.568-9.3728-33.9408 0-9.3728 9.3728-9.3728 24.568 0 33.9408l141.7056 141.7056c6.248 6.248 6.248 16.3792 0 22.6272l-142.336 142.336c-9.3728 9.3728-9.3728 24.568 0 33.9408 9.3728 9.3728 24.568 9.3728 33.9408 0z"  horiz-adv-x="1024" />

    
    <glyph glyph-name="gengduo" unicode="&#59264;" d="M512 832c247.424 0 448-200.576 448-448S759.424-64 512-64 64 136.576 64 384 264.576 832 512 832z m0-48C291.0864 784 112 604.9136 112 384s179.0864-400 400-400 400 179.0864 400 400S732.9136 784 512 784z m0-352c26.5104 0 48-21.4896 48-48 0-26.5104-21.4896-48-48-48-26.5104 0-48 21.4896-48 48 0 26.5104 21.4896 48 48 48z m-192 0c26.5104 0 48-21.4896 48-48 0-26.5104-21.4896-48-48-48-26.5104 0-48 21.4896-48 48 0 26.5104 21.4896 48 48 48z m384 0c26.5104 0 48-21.4896 48-48 0-26.5104-21.4896-48-48-48-26.5104 0-48 21.4896-48 48 0 26.5104 21.4896 48 48 48z"  horiz-adv-x="1024" />

    
    <glyph glyph-name="xiayi" unicode="&#59265;" d="M152 784c-13.2544 0-24 10.7456-24 24 0 13.2544 10.7456 24 24 24h720c13.2544 0 24-10.7456 24-24 0-13.2544-10.7456-24-24-24H152z m316.096-830.2464l-0.744 0.7328-333.2304 333.232c-9.3728 9.3712-9.3728 24.5664 0 33.9392 9.2352 9.2352 24.1232 9.3712 33.5248 0.408l0.416-0.408L486.4 3.3216V680c0 13.2544 10.7456 24 24 24 13.2544 0 24-10.7456 24-24v-679.88l321.536 321.5376c9.3728 9.3728 24.5696 9.3728 33.9424 0 9.2336-9.2336 9.3696-24.1216 0.4064-33.5232l-0.4064-0.416-333.232-333.232c-24.4112-24.4112-63.8384-24.656-88.5488-0.7328z"  horiz-adv-x="1024" />

    
    <glyph glyph-name="zuo" unicode="&#59266;" d="M697.12 47.984c9.3728-9.3744 9.3728-24.5696 0-33.9424-9.3728-9.3728-24.568-9.3728-33.9408 0L338.936 338.2848c-25.248 25.248-25.248 66.1824 0 91.4304L663.1792 753.9584c9.3728 9.3728 24.568 9.3728 33.9408 0 9.3728-9.3728 9.3728-24.568 0-33.9408L372.8768 395.7744c-6.5024-6.5024-6.5024-17.0464 0-23.5488L697.12 47.9824z"  horiz-adv-x="1024" />

    
    <glyph glyph-name="xiangzuo" unicode="&#59267;" d="M960 384c0-13.256-10.744-24-24-24H129.728l319.936-319.9376c9.2352-9.2352 9.3712-24.1232 0.408-33.5232l-0.408-0.4176c-9.3728-9.3728-24.568-9.3728-33.9408 0L82.4912 339.352c-24.656 24.6576-24.656 64.6368 0 89.296l333.232 333.2288c9.3728 9.3728 24.568 9.3728 33.9408 0 9.3728-9.3728 9.3728-24.568 0-33.9408L129.728 408H936c13.256 0 24-10.7456 24-24z"  horiz-adv-x="1024" />

    
    <glyph glyph-name="xiangshang" unicode="&#59268;" d="M512-64.0016c-13.2544 0-24 10.7456-24 24V766.2704l-319.936-319.936c-9.2352-9.2336-24.1232-9.3696-33.5248-0.4064l-0.416 0.4064c-9.3744 9.3728-9.3744 24.5696 0 33.9424L467.3504 813.504c24.6592 24.6592 64.6368 24.6592 89.296 0l333.2304-333.2288c9.3728-9.3728 9.3728-24.5696 0-33.9424-9.3728-9.3728-24.5696-9.3728-33.9424 0L536 766.272V-40c0-13.2544-10.7456-24-24-24z"  horiz-adv-x="1024" />

    
    <glyph glyph-name="you" unicode="&#59269;" d="M327.0288 47.984c-9.3712-9.3744-9.3712-24.5696 0-33.9424 9.3728-9.3728 24.5696-9.3728 33.9424 0l324.2416 324.2432c25.248 25.248 25.248 66.1824 0 91.4304L360.9712 753.9584c-9.3728 9.3728-24.5696 9.3728-33.9424 0-9.3712-9.3728-9.3712-24.568 0-33.9408l324.2432-324.2432c6.5024-6.5024 6.5024-17.0464 0-23.5488L327.0288 47.9824z"  horiz-adv-x="1024" />

    
    <glyph glyph-name="xia" unicode="&#59270;" d="M175.9792 569.0448c-9.3728 9.3728-24.5696 9.3728-33.9424 0-9.3712-9.3728-9.3712-24.568 0-33.9408l324.2432-324.2432c25.248-25.248 66.184-25.248 91.4304 0L881.9536 535.104c9.3728 9.3728 9.3728 24.568 0 33.9408-9.3728 9.3728-24.568 9.3728-33.9408 0L523.7696 244.8032c-6.5024-6.504-17.0448-6.504-23.5488 0L175.9792 569.0448z"  horiz-adv-x="1024" />

    
    <glyph glyph-name="jiesuo" unicode="&#59271;" d="M512 832c115.1776 0 215.2592-76.7232 246.2784-185.9056 3.6224-12.752-3.776-26.024-16.528-29.6464-12.7488-3.6224-26.0208 3.776-29.6432 16.528C686.912 721.648 605.5808 784 512 784c-114.8752 0-208-93.1248-208-208v-64h560c35.3456 0 64-28.6544 64-64v-448c0-35.3456-28.6544-64-64-64H160c-35.3456 0-64 28.6544-64 64V448c0 35.3456 28.6544 64 64 64h96v64c0 141.3856 114.6144 256 256 256z m352-368H160c-8.8368 0-16-7.1632-16-16v-448c0-8.8368 7.1632-16 16-16h704c8.8368 0 16 7.1632 16 16V448c0 8.8368-7.1632 16-16 16z"  horiz-adv-x="1024" />

    
    <glyph glyph-name="yingyong" unicode="&#59272;" d="M544 807.6384l320.2672-184.9072a64 64 0 0 0 32-55.424v-369.8128a64 64 0 0 0-32-55.4256L544-42.8384a64 64 0 0 0-64 0L159.7328 142.0688a64 64 0 0 0-32 55.424V567.3072a64 64 0 0 0 32 55.4256L480 807.6384a64 64 0 0 0 64 0z m-40-41.5696L183.7328 581.1616a16 16 0 0 1-8-13.856v-369.8112a16 16 0 0 1 8-13.856L504-1.2688a16 16 0 0 1 16 0l320.2672 184.9072a16 16 0 0 1 8 13.856V567.3056a16 16 0 0 1-8 13.856L520 766.0688a16 16 0 0 1-16 0zM716.1792 501.6c6.5376-11.3216 2.8-25.7552-8.3168-32.5072l-0.4672-0.2768-171.3968-98.9552L536 171.2c0-13.088-10.4752-23.728-23.4976-23.9952L512 147.2c-13.2544 0-24 10.7456-24 24V369.5472L316.0592 468.816c-11.4784 6.6272-15.4112 21.3056-8.784 32.784 6.6272 11.4784 21.3056 15.4128 32.784 8.784l171.6672-99.112 171.6672 99.112c11.4784 6.6288 26.1568 2.6944 32.784-8.784z"  horiz-adv-x="1024" />

    
    <glyph glyph-name="suoding" unicode="&#59273;" d="M507.7664 831.9664L512 832c139.9712 0 253.7056-112.3344 255.9664-251.7664L768 576v-64h96c35.3456 0 64-28.6544 64-64v-448c0-35.3456-28.6544-64-64-64H160c-35.3456 0-64 28.6544-64 64V448c0 35.3456 28.6544 64 64 64h96v64c0 139.9712 112.3344 253.7056 251.7664 255.9664L512 832zM864 464H160c-8.8368 0-16-7.1632-16-16v-448c0-8.8368 7.1632-16 16-16h704c8.8368 0 16 7.1632 16 16V448c0 8.8368-7.1632 16-16 16z m-352-112c13.2544 0 24-10.7456 24-24v-208c0-13.2544-10.7456-24-24-24-13.2544 0-24 10.7456-24 24V328c0 13.2544 10.7456 24 24 24z m3.44 431.9728L512 784c-113.7264 0-206.136-91.272-207.9728-204.56L304 576v-64h416v64c0 113.7264-91.272 206.136-204.56 207.9728L512 784z"  horiz-adv-x="1024" />

    
    <glyph glyph-name="gongneng" unicode="&#59274;" d="M416 352c35.3456 0 64-28.6544 64-64v-256c0-35.3456-28.6544-64-64-64H160c-35.3456 0-64 28.6544-64 64V288c0 35.3456 28.6544 64 64 64h256z m320 0c106.0384 0 192-85.9616 192-192s-85.9616-192-192-192-192 85.9616-192 192 85.9616 192 192 192z m-320-48H160c-8.8368 0-16-7.1632-16-16v-256c0-8.8368 7.1632-16 16-16h256c8.8368 0 16 7.1632 16 16V288c0 8.8368-7.1632 16-16 16z m320 0c-79.5296 0-144-64.4704-144-144s64.4704-144 144-144 144 64.4704 144 144-64.4704 144-144 144zM416 800c35.3456 0 64-28.6544 64-64v-256c0-35.3456-28.6544-64-64-64H160c-35.3456 0-64 28.6544-64 64V736c0 35.3456 28.6544 64 64 64h256z m448 0c35.3456 0 64-28.6544 64-64v-256c0-35.3456-28.6544-64-64-64H608c-35.3456 0-64 28.6544-64 64V736c0 35.3456 28.6544 64 64 64h256zM416 752H160c-8.8368 0-16-7.1632-16-16v-256c0-8.8368 7.1632-16 16-16h256c8.8368 0 16 7.1632 16 16V736c0 8.8368-7.1632 16-16 16z m448 0H608c-8.8368 0-16-7.1632-16-16v-256c0-8.8368 7.1632-16 16-16h256c8.8368 0 16 7.1632 16 16V736c0 8.8368-7.1632 16-16 16z"  horiz-adv-x="1024" />

    
    <glyph glyph-name="yuechi" unicode="&#59275;" d="M349.5232 791.9232c9.3712-9.3728 9.3712-24.5696 0-33.9424l-105.5824-105.5808 76.8592-76.8592 100.536 100.536c9.3712 9.3728 24.568 9.3728 33.9408 0 9.3728-9.3728 9.3728-24.5696 0-33.9408L354.7408 541.6l121.1296-121.1296C520.3072 457.632 577.5408 480 640 480c141.3856 0 256-114.6144 256-256s-114.6144-256-256-256-256 114.6144-256 256c0 61.6416 21.7872 118.1952 58.08 162.3792L135.2112 693.248c-9.3728 9.3728-9.3728 24.5696 0 33.9408 9.3712 9.3728 24.568 9.3728 33.9408 0l40.8448-40.8448 105.584 105.5808c9.3712 9.3712 24.568 9.3712 33.9408 0zM640 432c-114.8752 0-208-93.1248-208-208s93.1248-208 208-208 208 93.1248 208 208-93.1248 208-208 208z"  horiz-adv-x="1024" />

    
    <glyph glyph-name="lianjie" unicode="&#59276;" d="M348.768 446.2432c9.3744-9.3728 9.3744-24.568 0-33.9408L183.552 247.0832c-53.112-53.1104-53.112-139.2208 0-192.3328 53.112-53.112 139.2224-53.112 192.3328 0l165.096 165.096c9.3728 9.3728 24.568 9.3728 33.9408 0 9.3728-9.3728 9.3728-24.5696 0-33.9424L409.824 20.8096c-71.856-71.856-188.3584-71.856-260.2144 0-71.856 71.856-71.856 188.3584 0 260.2144l165.2192 165.2192c9.3712 9.3728 24.568 9.3728 33.9408 0zM602.512 474.512c9.3712-9.3728 9.3712-24.5696 0-33.9424l-147.0784-147.0784c-9.3728-9.3712-24.5696-9.3712-33.9424 0-9.3712 9.3728-9.3712 24.5696 0 33.9424l147.0784 147.0784c9.3728 9.3712 24.5696 9.3712 33.9424 0zM873.6864 744.8864c71.856-71.856 71.856-188.3584 0-260.2144L709.488 320.472c-9.3728-9.3728-24.5696-9.3728-33.9424 0-9.3728 9.3728-9.3728 24.568 0 33.9408l164.2 164.2c53.1104 53.1104 53.1104 139.2208 0 192.3328-53.112 53.1104-139.2224 53.1104-192.3328 0L483.208 546.7408c-9.3728-9.3728-24.568-9.3728-33.9408 0-9.3728 9.3728-9.3728 24.5696 0 33.9408L613.472 744.8864c71.856 71.856 188.3584 71.856 260.2144 0z"  horiz-adv-x="1024" />

    
    <glyph glyph-name="lianjie1" unicode="&#59277;" d="M562.8432 466.384c9.3728 9.3744 24.5696 9.3744 33.9424 0 78.104-78.104 78.104-204.736 0-282.8416l-158.392-158.392c-78.1056-78.1056-204.7376-78.1056-282.8432 0-78.1056 78.1056-78.1056 204.7376 0 282.8432l78.848 78.848c9.3728 9.3712 24.568 9.3712 33.9408 0 9.3728-9.3728 9.3728-24.5696 0-33.9424l-78.848-78.848c-59.36-59.36-59.36-155.6 0-214.96 59.36-59.36 155.6-59.36 214.96 0l158.392 158.392c59.36 59.36 59.36 155.6 0 214.96-9.3712 9.3728-9.3712 24.5696 0 33.9424z m23.0992 274.2336c78.104 78.104 204.7376 78.104 282.8432 0 78.104-78.1056 78.104-204.7376 0-282.8432l-78.848-78.848c-9.3728-9.3728-24.5696-9.3728-33.9424 0-9.3712 9.3728-9.3712 24.5696 0 33.9408l78.848 78.848c59.36 59.36 59.36 155.6 0 214.96-59.36 59.36-155.6 59.36-214.96 0l-158.392-158.3904c-59.36-59.36-59.36-155.6 0-214.96 9.3728-9.3728 9.3728-24.5696 0-33.9424-9.3728-9.3728-24.568-9.3728-33.9408 0-78.1056 78.1056-78.1056 204.7376 0 282.8432z"  horiz-adv-x="1024" />

    
    <glyph glyph-name="shenfen" unicode="&#59278;" d="M896 768c35.3456 0 64-28.6544 64-64v-640c0-35.3456-28.6544-64-64-64H128c-35.3456 0-64 28.6544-64 64V704c0 35.3456 28.6544 64 64 64h768z m0-48H128c-8.8368 0-16-7.1632-16-16v-640c0-8.8368 7.1632-16 16-16h768c8.8368 0 16 7.1632 16 16V704c0 8.8368-7.1632 16-16 16z m-544-144c61.856 0 112-50.144 112-112 0-31.8576-13.3008-60.608-34.6528-81.0032C492.3232 353.7856 536 289.9936 536 216c0-13.2544-10.7456-24-24-24-13.2544 0-24 10.7456-24 24 0 75.1104-60.8896 136-136 136s-136-60.8896-136-136c0-13.2544-10.7456-24-24-24-13.2544 0-24 10.7456-24 24 0 73.9936 43.6752 137.7856 106.6528 167.0016C253.3008 403.392 240 432.144 240 464c0 61.856 50.144 112 112 112z m480-336c13.2544 0 24-10.7456 24-24 0-13.2544-10.7456-24-24-24h-144c-13.2544 0-24 10.7456-24 24 0 13.2544 10.7456 24 24 24h144z m0 168c13.2544 0 24-10.7456 24-24 0-13.2544-10.7456-24-24-24H600c-13.2544 0-24 10.7456-24 24 0 13.2544 10.7456 24 24 24h232z m-480 120c-35.3456 0-64-28.6544-64-64s28.6544-64 64-64 64 28.6544 64 64-28.6544 64-64 64z m480 48c13.2544 0 24-10.7456 24-24 0-13.2544-10.7456-24-24-24H600c-13.2544 0-24 10.7456-24 24 0 13.2544 10.7456 24 24 24h232z"  horiz-adv-x="1024" />

    
    <glyph glyph-name="qukuai" unicode="&#59279;" d="M544 807.6384l320.2672-184.9072a64 64 0 0 0 32-55.424v-369.8128a64 64 0 0 0-32-55.4256L544-42.8384a64 64 0 0 0-64 0L159.7328 142.0688a64 64 0 0 0-32 55.424V567.3072a64 64 0 0 0 32 55.4256L480 807.6384a64 64 0 0 0 64 0zM175.7328 549.8336v-352.3392a16 16 0 0 1 8-13.856L488 7.968V369.5472l-312.2656 180.288z m672.5328 0.3152L536 369.8608v-361.8912l304.2688 175.6688a16 16 0 0 1 8 13.856v352.656zM504 766.0688l-303.4-175.168L511.728 411.272l311.4 179.7872L520 766.0672a16 16 0 0 1-16 0z"  horiz-adv-x="1024" />

    
    <glyph glyph-name="youjian" unicode="&#59280;" d="M896 768c35.3456 0 64-28.6544 64-64v-640c0-35.3456-28.6544-64-64-64H128c-35.3456 0-64 28.6544-64 64V704c0 35.3456 28.6544 64 64 64h768z m16-230.9856L538.4 367.8368a64 64 0 0 0-52.8 0L112 537.0128V64c0-8.8368 7.1632-16 16-16h768c8.8368 0 16 7.1632 16 16V537.0144zM896 720H128c-8.8368 0-16-7.1632-16-16v-114.2944l393.4-178.144a16 16 0 0 1 13.2 0L912 589.7072V704c0 8.8368-7.1632 16-16 16z"  horiz-adv-x="1024" />

    
    <glyph glyph-name="saoma" unicode="&#59281;" d="M904 216.0096c13.088 0 23.728-10.4752 23.9952-23.4976l0.0048-0.5024V32c0-34.992-28.0832-63.4256-62.9424-63.992L864-32h-158.7904c-13.2544 0-24 10.7456-24 24 0 13.088 10.4752 23.728 23.4976 23.9952l0.5024 0.0048H864c8.688 0 15.7568 6.9232 15.9936 15.552L880 32V192.0096c0 13.2544 10.7456 24 24 24z m-784-0.2288c13.088 0 23.728-10.4752 23.9952-23.4992l0.0048-0.5008V32c0-8.688 6.9232-15.7568 15.552-15.9936l0.448-0.0064h159.56c13.2544 0 24-10.7456 24-24 0-13.088-10.4752-23.728-23.4976-23.9952l-0.5024-0.0048H160c-34.992 0-63.4256 28.0832-63.992 62.9424L96 32v159.7808c0 13.2544 10.7456 24 24 24zM808 408c13.2544 0 24-10.7456 24-24 0-13.2544-10.7456-24-24-24H216c-13.2544 0-24 10.7456-24 24 0 13.2544 10.7456 24 24 24h592zM320.9872 800c13.2544 0 24-10.7456 24-24 0-13.2544-10.7456-24-24-24H160c-8.8368 0-16-7.1632-16-16v-160.0736c0-13.2544-10.7456-24-24-24-13.2544 0-24 10.7456-24 24V736c0 35.3456 28.6544 64 64 64h160.9872zM864 800c34.992 0 63.4256-28.0832 63.992-62.9424L928 736v-159.2528c0-13.2544-10.7456-24-24-24-13.088 0-23.728 10.4752-23.9952 23.4976l-0.0048 0.5024V736c0 8.688-6.9232 15.7568-15.552 15.9936L864 752h-159.0944c-13.2544 0-24 10.7456-24 24 0 13.088 10.4752 23.728 23.4976 23.9952l0.5024 0.0048H864z"  horiz-adv-x="1024" />

    
    <glyph glyph-name="guanxi" unicode="&#59282;" d="M512 833.6c59.104 0 108.2304-42.7312 118.1664-98.9856C800.5344 683.1984 920 525.456 920 344c0-34.3264-4.2448-68.0976-12.5392-100.7472C939.1744 221.6592 960 185.264 960 144c0-66.2736-53.7264-120-120-120-20.8064 0-40.376 5.296-57.4352 14.6112C708.6352-26.96 613.2048-64 512-64c-101.2368 0-196.672 37.0656-270.5696 102.6128C224.3744 29.2944 204.8064 24 184 24c-66.2736 0-120 53.7264-120 120 0 41.2624 20.8256 77.6608 52.5392 99.2576C108.2448 275.904 104 309.6768 104 344c0 181.4864 119.4992 339.2112 289.832 390.6208C403.768 790.8672 452.8944 833.6 512 833.6z m116.5088-148.8576l-0.4656-1.8224C614.4864 631.5088 567.6704 593.6 512 593.6c-56.3232 0-103.584 38.8048-116.5056 91.136C251.7696 635.696 152 499.7568 152 344c0-27.944 3.1792-55.4448 9.4048-82.128A120.3632 120.3632 0 0 0 184 264c66.2736 0 120-53.7264 120-120 0-27.9184-9.5344-53.6096-25.5232-73.9952C342.9344 14.976 424.9952-16 512-16c86.9808 0 169.0352 30.9536 233.5264 86.0048C729.5344 90.3904 720 116.08 720 144c0 66.2736 53.7264 120 120 120a120.64 120.64 0 0 0 22.5952-2.1248C868.8192 288.552 872 316.0528 872 344c0 155.7328-99.744 291.6848-243.4912 340.7424zM184 216c-39.7648 0-72-32.2352-72-72s32.2352-72 72-72 72 32.2352 72 72-32.2352 72-72 72z m656 0c-39.7648 0-72-32.2352-72-72s32.2352-72 72-72 72 32.2352 72 72-32.2352 72-72 72zM512 785.6c-39.7648 0-72-32.2352-72-72s32.2352-72 72-72 72 32.2352 72 72-32.2352 72-72 72z"  horiz-adv-x="1024" />

    
    <glyph glyph-name="xitongshezhi" unicode="&#59283;" d="M896 768c35.3456 0 64-28.6544 64-64v-640c0-35.3456-28.6544-64-64-64H128c-35.3456 0-64 28.6544-64 64V704c0 35.3456 28.6544 64 64 64h768z m0-48H128c-8.8368 0-16-7.1632-16-16v-640c0-8.8368 7.1632-16 16-16h768c8.8368 0 16 7.1632 16 16V704c0 8.8368-7.1632 16-16 16z m-384-32c13.2544 0 24-10.7456 24-24l0.0016-62.224C577.408 591.1152 608 553.5296 608 508.8s-30.592-82.3168-71.9984-92.976L536 104c0-13.2544-10.7456-24-24-24-13.2544 0-24 10.7456-24 24l-0.0016 311.824C446.592 426.4848 416 464.0704 416 508.8s30.592 82.3168 71.9984 92.976L488 664c0 13.2544 10.7456 24 24 24z m-224 0c13.2544 0 24-10.7456 24-24l0.0016-279.824C353.408 373.5152 384 335.9296 384 291.2s-30.592-82.3168-71.9984-92.976L312 104c0-13.2544-10.7456-24-24-24-13.2544 0-24 10.7456-24 24l-0.0016 94.224C222.592 208.8848 192 246.4704 192 291.2s30.592 82.3168 71.9984 92.976L264 664c0 13.2544 10.7456 24 24 24z m448 0c13.2544 0 24-10.7456 24-24l0.0016-343.824C801.408 309.5152 832 271.9296 832 227.2s-30.592-82.3168-71.9984-92.976L760 104c0-13.2544-10.7456-24-24-24-13.2544 0-24 10.7456-24 24v30.224c-41.4064 10.6576-72 48.2448-72 92.976s30.592 82.3168 71.9984 92.976L712 664c0 13.2544 10.7456 24 24 24z m0-412.8c-26.5104 0-48-21.4896-48-48 0-26.5104 21.4896-48 48-48 26.5104 0 48 21.4896 48 48 0 26.5104-21.4896 48-48 48z m-448 64c-26.5104 0-48-21.4896-48-48 0-26.5104 21.4896-48 48-48 26.5104 0 48 21.4896 48 48 0 26.5104-21.4896 48-48 48z m224 217.6c-26.5104 0-48-21.4896-48-48 0-26.5104 21.4896-48 48-48 26.5104 0 48 21.4896 48 48 0 26.5104-21.4896 48-48 48z"  horiz-adv-x="1024" />

    
    <glyph glyph-name="yinyong" unicode="&#59284;" d="M543.5952 512c13.2544 0 24-10.7456 24-24 0-13.2544-10.7456-24-24-24H424c-8.8368 0-16-7.1632-16-16v-384c0-8.8368 7.1632-16 16-16h472c8.8368 0 16 7.1632 16 16V448c0 8.8368-7.1632 16-16 16H735.664c-13.2528 0-24 10.7456-24 24 0 13.2544 10.7472 24 24 24H896c35.3456 0 64-28.6544 64-64v-384c0-35.3456-28.6544-64-64-64H424c-35.3456 0-64 28.6544-64 64V448c0 35.3456 28.6544 64 64 64zM600 768c35.3456 0 64-28.6544 64-64v-384c0-35.3456-28.6544-64-64-64h-119.5952c-13.2544 0-24 10.7456-24 24 0 13.2544 10.7456 24 24 24H600c8.8368 0 16 7.1632 16 16V704c0 8.8368-7.1632 16-16 16H128c-8.8368 0-16-7.1632-16-16v-384c0-8.8368 7.1632-16 16-16h160.336c13.2528 0 24-10.7456 24-24 0-13.2544-10.7472-24-24-24H128c-35.3456 0-64 28.6544-64 64V704c0 35.3456 28.6544 64 64 64z"  horiz-adv-x="1024" />

    
    <glyph glyph-name="liebiao" unicode="&#59285;" d="M416 352c35.3456 0 64-28.6544 64-64v-256c0-35.3456-28.6544-64-64-64H160c-35.3456 0-64 28.6544-64 64V288c0 35.3456 28.6544 64 64 64h256z m488-304c13.2544 0 24-10.7456 24-24 0-13.2544-10.7456-24-24-24H568c-13.2544 0-24 10.7456-24 24 0 13.2544 10.7456 24 24 24h336zM416 304H160c-8.8368 0-16-7.1632-16-16v-256c0-8.8368 7.1632-16 16-16h256c8.8368 0 16 7.1632 16 16V288c0 8.8368-7.1632 16-16 16z m488-16c13.2544 0 24-10.7456 24-24 0-13.2544-10.7456-24-24-24H568c-13.2544 0-24 10.7456-24 24 0 13.2544 10.7456 24 24 24h336zM416 800c35.3456 0 64-28.6544 64-64v-256c0-35.3456-28.6544-64-64-64H160c-35.3456 0-64 28.6544-64 64V736c0 35.3456 28.6544 64 64 64h256z m0-48H160c-8.8368 0-16-7.1632-16-16v-256c0-8.8368 7.1632-16 16-16h256c8.8368 0 16 7.1632 16 16V736c0 8.8368-7.1632 16-16 16z m488-224c13.2544 0 24-10.7456 24-24 0-13.2544-10.7456-24-24-24H568c-13.2544 0-24 10.7456-24 24 0 13.2544 10.7456 24 24 24h336z m0 240c13.2544 0 24-10.7456 24-24 0-13.2544-10.7456-24-24-24H568c-13.2544 0-24 10.7456-24 24 0 13.2544 10.7456 24 24 24h336z"  horiz-adv-x="1024" />

    
    <glyph glyph-name="kongzhitai" unicode="&#59286;" d="M216 16h592c13.2544 0 24-10.7456 24-24 0-13.2544-10.7456-24-24-24H216c-13.2544 0-24 10.7456-24 24 0 13.2544 10.7456 24 24 24zM896 800c35.3456 0 64-28.6544 64-64v-528c0-35.3456-28.6544-64-64-64H128c-35.3456 0-64 28.6544-64 64V736c0 35.3456 28.6544 64 64 64h768z m0-48H128c-8.8368 0-16-7.1632-16-16v-528c0-8.8368 7.1632-16 16-16h168V360c0 13.2544 10.7456 24 24 24 13.2544 0 24-10.7456 24-24v-168h144V616c0 13.2544 10.7456 24 24 24 13.2544 0 24-10.7456 24-24v-424h144V488c0 13.2544 10.7456 24 24 24 13.2544 0 24-10.7456 24-24v-296h168c8.8368 0 16 7.1632 16 16V736c0 8.8368-7.1632 16-16 16z"  horiz-adv-x="1024" />

    
    <glyph glyph-name="diannao" unicode="&#59287;" d="M896 800c35.3456 0 64-28.6544 64-64v-528c0-35.3456-28.6544-64-64-64H536v-128h400c13.2544 0 24-10.7456 24-24 0-13.2544-10.7456-24-24-24H88c-13.2544 0-24 10.7456-24 24 0 13.2544 10.7456 24 24 24l400 0.0016V144H128c-35.3456 0-64 28.6544-64 64V736c0 35.3456 28.6544 64 64 64h768z m0-48H128c-8.8368 0-16-7.1632-16-16v-528c0-8.8368 7.1632-16 16-16h768c8.8368 0 16 7.1632 16 16V736c0 8.8368-7.1632 16-16 16z"  horiz-adv-x="1024" />

    
    <glyph glyph-name="shangchuan" unicode="&#59288;" d="M557.1104 364.3904l91.744-91.744c9.3712-9.3712 9.3712-24.568 0-33.9408-9.3728-9.3728-24.5696-9.3728-33.9424 0l-79.056 79.0592V-8c0-13.2544-10.7456-24-24-24-13.2544 0-24 10.7456-24 24V317.7648l-79.5568-79.5584c-9.3728-9.3728-24.568-9.3728-33.9408 0-9.3728 9.3728-9.3728 24.568 0 33.9408l92.2432 92.2432c24.992 24.992 65.5152 24.992 90.5088 0zM512 800c151.5056 0 282.304-102.2912 320.7248-245.9104C909.5744 517.2928 960 439.3136 960 352c0-123.712-100.288-224-224-224h-8c-13.2544 0-24 10.7456-24 24 0 13.2544 10.7456 24 24 24h8c97.2016 0 176 78.7984 176 176 0 71.9264-43.5408 135.7856-108.9008 162.7584a24 24 0 0 0-14.104 16.2688l-0.1376 0.5664-0.1312 0.5696C759.232 659.9376 644.9184 752 512 752c-133.104 0-247.528-92.3152-276.84-220.3264l-0.1152-0.504-0.16-0.5824a24 24 0 0 0-13.432-15.5872l-0.552-0.2368C155.5408 487.7856 112 423.9248 112 352c0-97.2016 78.7984-176 176-176h8c13.2544 0 24-10.7456 24-24 0-13.2544-10.7456-24-24-24h-8.0176C164.2784 128.0096 64 228.2944 64 352c0 87.3152 50.4256 165.296 127.2768 202.096C229.6928 697.6944 360.48 800 512 800z"  horiz-adv-x="1024" />

    
    <glyph glyph-name="jiankong" unicode="&#59289;" d="M896 800c35.3456 0 64-28.6544 64-64v-528c0-35.3456-28.6544-64-64-64H536v-128h400c13.2544 0 24-10.7456 24-24 0-13.2544-10.7456-24-24-24H88c-13.2544 0-24 10.7456-24 24 0 13.2544 10.7456 24 24 24l400 0.0016V144H128c-35.3456 0-64 28.6544-64 64V736c0 35.3456 28.6544 64 64 64h768zM248.4512 531.2384l-34.9856-69.9712a24 24 0 0 0-20.9104-13.2608L192 448l-80 0.0016V208c0-8.8368 7.1632-16 16-16h768c8.8368 0 16 7.1632 16 16V448.0016L448 448a24 24 0 0 0-16.5152 6.5856l-0.456 0.4432-36.5408 36.5424-51.72-155.16c-7.5168-22.552-39.5776-21.5488-45.8688 1.0752l-0.1824 0.6928-48.2656 193.0592zM896 752H128c-8.8368 0-16-7.1632-16-16v-239.9984l65.168-0.0016 57.3664 114.7328c9.864 19.7312 38.76 16.768 44.5792-4.2688l0.1696-0.6432 44.0112-176.0432 37.936 113.8112c5.5872 16.7568 26.696 21.8944 39.36 9.7552l0.3808-0.3728L457.9408 496 912 496.0016V736c0 8.8368-7.1632 16-16 16z"  horiz-adv-x="1024" />

    
    <glyph glyph-name="xiangji" unicode="&#59290;" d="M685.184 768a64 64 0 0 0 50.0112-24.064l39.8592-49.92a16 16 0 0 1 12.5024-6.016H896c35.3456 0 64-28.6544 64-64v-560c0-35.3456-28.6544-64-64-64H128c-35.3456 0-64 28.6544-64 64V624c0 35.3456 28.6544 64 64 64h109.9232a16 16 0 0 1 12.5008 6.0128l39.8912 49.9344A64 64 0 0 0 340.32 768h344.864z m0-48H340.3168a16 16 0 0 1-12.5008-6.0128l-39.8928-49.9344A64 64 0 0 0 237.9232 640H128c-8.8368 0-16-7.1632-16-16v-560c0-8.8368 7.1632-16 16-16h768c8.8368 0 16 7.1632 16 16V624c0 8.8368-7.1632 16-16 16h-108.4432a64 64 0 0 0-50.0112 24.064l-39.8592 49.92a16 16 0 0 1-12.504 6.016zM512 544c106.0384 0 192-85.9616 192-192s-85.9616-192-192-192-192 85.9616-192 192 85.9616 192 192 192z m0-48c-79.5296 0-144-64.4704-144-144s64.4704-144 144-144 144 64.4704 144 144-64.4704 144-144 144z m312 48c13.2544 0 24-10.7456 24-24 0-13.2544-10.7456-24-24-24h-48c-13.2544 0-24 10.7456-24 24 0 13.2544 10.7456 24 24 24h48z"  horiz-adv-x="1024" />

    
    <glyph glyph-name="xiachuan" unicode="&#59291;" d="M511.3552 384.736c13.256 0 24-10.7456 24-24v-327.3712l79.5568 79.5568c9.2352 9.2352 24.1232 9.3712 33.5248 0.408l0.416-0.408c9.2352-9.2336 9.3712-24.1216 0.408-33.5232l-0.4064-0.416-92.2432-92.2448c-24.744-24.7424-64.7072-24.992-89.7552-0.7424l-0.7552 0.7424-91.744 91.744c-9.3712 9.3728-9.3712 24.568 0 33.9408 9.2352 9.2352 24.1248 9.3696 33.5248 0.408l0.416-0.408 79.0592-79.0576V360.736c0 13.2544 10.744 24 24 24zM512 800c151.5056 0 282.304-102.2912 320.7248-245.9104C909.5744 517.2928 960 439.3136 960 352c0-123.712-100.288-224-224-224h-8c-13.2544 0-24 10.7456-24 24 0 13.2544 10.7456 24 24 24h8c97.2016 0 176 78.7984 176 176 0 71.9264-43.5408 135.7856-108.9008 162.7584a24 24 0 0 0-14.24 16.8352l-0.1328 0.5696C759.232 659.9376 644.9184 752 512 752c-133.104 0-247.528-92.3152-276.84-220.3264l-0.1152-0.504-0.16-0.5824a24 24 0 0 0-13.984-15.824C155.5408 487.7856 112 423.9248 112 352c0-97.2016 78.7984-176 176-176h8c13.2544 0 24-10.7456 24-24 0-13.2544-10.7456-24-24-24h-8.0176C164.2784 128.0096 64 228.2944 64 352c0 87.3152 50.4256 165.296 127.2768 202.096C229.6928 697.6944 360.48 800 512 800z"  horiz-adv-x="1024" />

    
    <glyph glyph-name="xitongjiagou" unicode="&#59292;" d="M608 800c35.3456 0 64-28.6544 64-64v-192c0-35.3456-28.6544-64-64-64h-72v-71.9984L760 408c34.992 0 63.4256-28.0832 63.992-62.9424L824 344v-56h72c35.3456 0 64-28.6544 64-64v-192c0-35.3456-28.6544-64-64-64H704c-35.3456 0-64 28.6544-64 64V224c0 35.3456 28.6544 64 64 64h72v56c0 8.688-6.9232 15.7568-15.552 15.9936L760 360H264c-8.688 0-15.7568-6.9232-15.9936-15.552L248 344v-56h72c35.3456 0 64-28.6544 64-64v-192c0-35.3456-28.6544-64-64-64H128c-35.3456 0-64 28.6544-64 64V224c0 35.3456 28.6544 64 64 64h72v56c0 34.992 28.0832 63.4256 62.9424 63.992L264 408l224 0.0016V480h-72c-35.3456 0-64 28.6544-64 64V736c0 35.3456 28.6544 64 64 64h192zM320 240H128c-8.8368 0-16-7.1632-16-16v-192c0-8.8368 7.1632-16 16-16h192c8.8368 0 16 7.1632 16 16V224c0 8.8368-7.1632 16-16 16z m576 0H704c-8.8368 0-16-7.1632-16-16v-192c0-8.8368 7.1632-16 16-16h192c8.8368 0 16 7.1632 16 16V224c0 8.8368-7.1632 16-16 16zM608 752H416c-8.8368 0-16-7.1632-16-16v-192c0-8.8368 7.1632-16 16-16h192c8.8368 0 16 7.1632 16 16V736c0 8.8368-7.1632 16-16 16z"  horiz-adv-x="1024" />

    
    <glyph glyph-name="gongzuotai" unicode="&#59293;" d="M128 800h449.088c13.2544 0 24-10.7456 24-24 0-13.088-10.4752-23.728-23.4976-23.9952l-0.5024-0.0048H128c-8.688 0-15.7568-6.9232-15.9936-15.552L112 736v-528c0-8.688 6.9232-15.7568 15.552-15.9936L128 192h768c8.688 0 15.7568 6.9232 15.9936 15.552L912 208V446.5536c0 13.2544 10.7456 24 24 24 13.088 0 23.728-10.4752 23.9952-23.4976l0.0048-0.5024V208c0-34.992-28.0832-63.4256-62.9424-63.992L896 144H536v-128h400c13.2544 0 24-10.7456 24-24 0-13.2544-10.7456-24-24-24H88c-13.2544 0-24 10.7456-24 24 0 13.2544 10.7456 24 24 24l400 0.0016V144H128c-34.992 0-63.4256 28.0832-63.992 62.9424L64 208V736c0 34.992 28.0832 63.4256 62.9424 63.992L128 800h449.088z m792.7184-8.0816c9.3728-9.3728 9.3728-24.568 0-33.9408L547.3664 384.624c-9.3728-9.3728-24.5696-9.3728-33.9408 0-9.3728 9.3712-9.3728 24.568 0 33.9408L886.7776 791.9184c9.3728 9.3728 24.568 9.3728 33.9408 0z"  horiz-adv-x="1024" />

    
    <glyph glyph-name="shezhi" unicode="&#59294;" d="M937.2384 350.4L752.3312 30.1328a64 64 0 0 0-55.424-32H327.0928a64 64 0 0 0-55.4256 32L86.7616 350.4a64 64 0 0 0 0 64l184.9072 320.2672a64 64 0 0 0 55.424 32h369.8128a64 64 0 0 0 55.4256-32L937.2384 414.4a64 64 0 0 0 0-64z m-41.5696 24a16 16 0 0 1 0 16L710.7616 710.6672a16 16 0 0 1-13.856 8H327.0944a16 16 0 0 1-13.856-8L128.3312 390.4a16 16 0 0 1 0-16l184.9072-320.2672a16 16 0 0 1 13.856-8h369.8112a16 16 0 0 1 13.856 8L895.6688 374.4zM512 192c106.0384 0 192 85.9616 192 192s-85.9616 192-192 192-192-85.9616-192-192 85.9616-192 192-192z m0 48c-79.5296 0-144 64.4704-144 144s64.4704 144 144 144 144-64.4704 144-144-64.4704-144-144-144z"  horiz-adv-x="1024" />

    
    <glyph glyph-name="pingtai" unicode="&#59295;" d="M808 16c13.2544 0 24-10.7456 24-24 0-13.2544-10.7456-24-24-24H216c-13.2544 0-24 10.7456-24 24 0 13.2544 10.7456 24 24 24h592z m88 784c35.3456 0 64-28.6544 64-64v-528c0-35.3456-28.6544-64-64-64H128c-35.3456 0-64 28.6544-64 64V736c0 35.3456 28.6544 64 64 64h768z m0-48H128c-8.8368 0-16-7.1632-16-16v-528c0-8.8368 7.1632-16 16-16h768c8.8368 0 16 7.1632 16 16V736c0 8.8368-7.1632 16-16 16z m-384-64c70.6928 0 128-57.3072 128-128 0-38.6816-17.1584-73.3568-44.28-96.8272C673.4352 430.472 728 353.608 728 264c0-13.2544-10.7456-24-24-24-13.2544 0-24 10.7456-24 24 0 92.784-75.216 168-168 168s-168-75.216-168-168c0-13.2544-10.7456-24-24-24-13.2544 0-24 10.7456-24 24 0 89.608 54.5648 166.472 132.2816 199.1776C401.1584 486.6432 384 521.3184 384 560c0 70.6928 57.3072 128 128 128z m0-48c-44.1824 0-80-35.8176-80-80s35.8176-80 80-80 80 35.8176 80 80-35.8176 80-80 80z"  horiz-adv-x="1024" />

    
    <glyph glyph-name="zhuti" unicode="&#59296;" d="M784 352c79.5296 0 144-64.4704 144-144v-176c0-35.3456-28.6544-64-64-64H688c-79.5296 0-144 64.4704-144 144V288c0 35.3456 28.6544 64 64 64h176z m-368 0c34.992 0 63.4256-28.0832 63.992-62.9424L480 288v-176c0-78.7344-63.1888-142.7088-141.6192-143.9808L336-32H160c-34.992 0-63.4256 28.0832-63.992 62.9424L96 32V208c0 78.7344 63.1888 142.7088 141.6192 143.9808L240 352h176z m368-48H608c-8.8368 0-16-7.1632-16-16v-176c0-53.0192 42.9808-96 96-96h176c8.8368 0 16 7.1632 16 16V208c0 53.0192-42.9808 96-96 96z m-368 0H240c-52.4896 0-95.1392-42.1248-95.9872-94.4128L144 208v-176c0-8.688 6.9232-15.7568 15.552-15.9936l0.448-0.0064h176c52.4896 0 95.1392 42.1248 95.9872 94.4128L432 112V288c0 8.8368-7.1632 16-16 16zM336 800c79.5296 0 144-64.4704 144-144v-176c0-35.3456-28.6544-64-64-64H240c-79.5296 0-144 64.4704-144 144V736c0 35.3456 28.6544 64 64 64h176z m432.288 0c13.2544 0 24-10.7456 24-24 0-13.2544-10.7456-24-24-24H688c-53.0192 0-96-42.9808-96-96v-176c0-8.8368 7.1632-16 16-16h176c53.0192 0 96 42.9808 96 96v80.0752c0 13.256 10.7456 24 24 24 13.2544 0 24-10.744 24-24V560c0-79.5296-64.4704-144-144-144H608c-35.3456 0-64 28.6544-64 64V656c0 79.5296 64.4704 144 144 144h80.288zM336 752H160c-8.8368 0-16-7.1632-16-16v-176c0-53.0192 42.9808-96 96-96h176c8.8368 0 16 7.1632 16 16V656c0 53.0192-42.9808 96-96 96z m544 48c26.5104 0 48-21.4896 48-48 0-26.5104-21.4896-48-48-48-26.5104 0-48 21.4896-48 48 0 26.5104 21.4896 48 48 48z"  horiz-adv-x="1024" />

    
    <glyph glyph-name="yibiaopan" unicode="&#59297;" d="M808 16c13.2544 0 24-10.7456 24-24 0-13.2544-10.7456-24-24-24H216c-13.2544 0-24 10.7456-24 24 0 13.2544 10.7456 24 24 24h592zM512 800c247.424 0 448-200.576 448-448 0-71.5488-16.8064-140.7408-48.5968-203.1312-6.0176-11.8112-20.4704-16.5056-32.28-10.488-11.8112 6.016-16.5056 20.4704-10.488 32.28 24.8048 48.68 39.384 101.984 42.656 157.3392H832c-13.2544 0-24 10.7456-24 24 0 13.2544 10.7456 24 24 24l79.2912 0.0032c-5.4912 92.7904-42.6144 177.072-100.7376 242.208l-54.2224-54.2208c-9.3728-9.3728-24.568-9.3728-33.9408 0-9.3728 9.3728-9.3728 24.568 0 33.9408l54.1264 54.128c-64.9024 57.2576-148.5264 93.7888-240.5136 99.232L536 672c0-13.2544-10.7456-24-24-24-13.2544 0-24 10.7456-24 24l-0.0016 79.2912c-92.3888-5.4672-176.3424-42.2928-241.3632-99.984L302.7408 595.2c9.3728-9.3728 9.3728-24.568 0-33.9408-9.3728-9.3728-24.568-9.3728-33.9408 0l-56.1072 56.1072c-57.6896-65.0224-94.5168-148.976-99.984-241.3632L192 376c13.2544 0 24-10.7456 24-24 0-13.2544-10.7456-24-24-24H112.7072c3.2512-54.9552 17.6432-107.888 42.1232-156.288 5.984-11.8272 1.2448-26.2656-10.5824-32.248-11.8288-5.984-26.2672-1.2448-32.2496 10.5824C80.592 212.136 64 280.9056 64 352 64 599.424 264.576 800 512 800z m152.3744-295.6256c9.3728-9.3728 9.3728-24.568 0-33.9408l-67.8816-67.8832a24.352 24.352 0 0 0-1.2256-1.1424C603.368 387.3312 608 371.0064 608 353.6c0-53.0192-42.9808-96-96-96s-96 42.9808-96 96 42.9808 96 96 96c18.2304 0 35.272-5.0816 49.7904-13.904 0.2448 0.2688 0.4992 0.5344 0.76 0.7968l67.8832 67.8816c9.3728 9.3728 24.568 9.3728 33.9408 0zM512 401.6c-26.5104 0-48-21.4896-48-48 0-26.5104 21.4896-48 48-48 26.5104 0 48 21.4896 48 48 0 26.5104-21.4896 48-48 48z"  horiz-adv-x="1024" />

    
    <glyph glyph-name="changjing" unicode="&#59298;" d="M780.8 407.6384l147.0608-84.9072a64 64 0 0 0 32-55.424v-169.8128a64 64 0 0 0-32-55.4256L780.8-42.8384a64 64 0 0 0-64 0l-147.0608 84.9072a64 64 0 0 0-32 55.424V267.3072a64 64 0 0 0 32 55.4256L716.8 407.6384a64 64 0 0 0 64 0z m-473.6 0l147.0608-84.9072a64 64 0 0 0 32-55.424v-169.8128a64 64 0 0 0-32-55.4256L307.2-42.8384a64 64 0 0 0-64 0l-147.0608 84.9072a64 64 0 0 0-32 55.424V267.3072a64 64 0 0 0 32 55.4256L243.2 407.6384a64 64 0 0 0 64 0z m433.6-41.5696l-147.0608-84.9072a16 16 0 0 1-8-13.856v-169.8112a16 16 0 0 1 8-13.856L740.8-1.2688a16 16 0 0 1 16 0l147.0608 84.9072a16 16 0 0 1 8 13.856V267.3056a16 16 0 0 1-8 13.856L756.8 366.0688a16 16 0 0 1-16 0z m-473.6 0l-147.0608-84.9072a16 16 0 0 1-8-13.856v-169.8112a16 16 0 0 1 8-13.856L267.2-1.2688a16 16 0 0 1 16 0l147.0608 84.9072a16 16 0 0 1 8 13.856V267.3056a16 16 0 0 1-8 13.856L283.2 366.0688a16 16 0 0 1-16 0z m276.8 452.768l147.0608-84.9056a64 64 0 0 0 32-55.424v-169.8128a64 64 0 0 0-32-55.4256L544 368.3616a64 64 0 0 0-64 0l-147.0608 84.9072a64 64 0 0 0-32 55.424V678.5072a64 64 0 0 0 32 55.4256L480 818.8384a64 64 0 0 0 64 0z m-40-41.568l-147.0608-84.9072a16 16 0 0 1-8-13.856v-169.8112a16 16 0 0 1 8-13.856L504 409.9312a16 16 0 0 1 16 0l147.0608 84.9072a16 16 0 0 1 8 13.856V678.5056a16 16 0 0 1-8 13.856L520 777.2688a16 16 0 0 1-16 0z"  horiz-adv-x="1024" />

    
    <glyph glyph-name="jiegou" unicode="&#59299;" d="M848 129.6c44.1824 0 80-35.8176 80-80s-35.8176-80-80-80H592c-44.1824 0-80 35.8176-80 80s35.8176 80 80 80h256z m0-48H592c-17.6736 0-32-14.3264-32-32s14.3264-32 32-32h256c17.6736 0 32 14.3264 32 32s-14.3264 32-32 32zM176 800c44.1824 0 80-35.8176 80-80 0-35.8208-23.5424-66.144-56-76.336V384h200c13.2544 0 24-10.7456 24-24 0-13.2544-10.7456-24-24-24H200v-246.4c0-8.688 6.9232-15.7568 15.552-15.9936l0.448-0.0064h232c13.2544 0 24-10.7456 24-24 0-13.088-10.4752-23.728-23.4976-23.9952L448 25.6H216c-34.992 0-63.4256 28.0832-63.992 62.9424L152 89.6V643.6624c-32.456 10.192-56 40.5168-56 76.3376 0 44.1824 35.8176 80 80 80z m672-360c44.1824 0 80-35.8176 80-80s-35.8176-80-80-80H592c-44.1824 0-80 35.8176-80 80s35.8176 80 80 80h256z m0-48H592c-17.6736 0-32-14.3264-32-32s14.3264-32 32-32h256c17.6736 0 32 14.3264 32 32s-14.3264 32-32 32z m0 408c44.1824 0 80-35.8176 80-80s-35.8176-80-80-80H400c-44.1824 0-80 35.8176-80 80s35.8176 80 80 80h448zM176 752c-17.6736 0-32-14.3264-32-32s14.3264-32 32-32 32 14.3264 32 32-14.3264 32-32 32z m672 0H400c-17.6736 0-32-14.3264-32-32s14.3264-32 32-32h448c17.6736 0 32 14.3264 32 32s-14.3264 32-32 32z"  horiz-adv-x="1024" />

    
    <glyph glyph-name="wenwu" unicode="&#59300;" d="M512 832c247.424 0 448-200.576 448-448 0-202.9408-134.9376-374.3632-319.984-429.4432-4.1792-1.2432-9.04-2.5376-14.5888-3.8832-21.4688-5.2048-43.0928 7.9792-48.2976 29.448a40 40 0 0 0-1.1264 9.424v10.1968L576 128v99.7872a40 40 0 0 0 11.7152 28.2848l116.6176 116.6144c6.248 6.248 6.248 16.3792 0 22.6272L523.3136 576.3328c-6.248 6.248-16.3792 6.248-22.6272 0L319.6672 395.3136c-6.248-6.248-6.248-16.3792 0-22.6272l116.616-116.616A40 40 0 0 0 448 227.7856v-238.2304c-0.0016-22.0912-17.9104-40-40.0016-40a40 40 0 0 0-9.4192 1.1264c-5.7232 1.3856-10.728 2.72-15.016 4C198.7312 9.8992 64 181.216 64 384 64 631.424 264.576 832 512 832z m0-48C291.0864 784 112 604.9136 112 384c0-173.4208 110.3616-321.0656 264.6864-376.5328 0.6432-0.232 1.328-0.4736 2.056-0.7264a16 16 0 0 1 21.256 15.112v12.4736 180.2048a24 24 0 0 1-7.0288 16.9696l-107.2432 107.2448c-24.9936 24.992-24.9936 65.5152 0 90.5088l181.0192 181.0192c24.992 24.9936 65.5152 24.9936 90.5088 0l181.0192-181.0192c24.9936-24.992 24.9936-65.5152 0-90.5088l-107.2432-107.2432A24 24 0 0 1 624 214.5312l0.0032-180.92v-11.744a16 16 0 0 1 21.216-15.1248c1.5152 0.5216 2.8848 1.0064 4.112 1.456C802.5984 64.2224 912 211.3344 912 384c0 220.9136-179.0864 400-400 400z"  horiz-adv-x="1024" />

    
    <glyph glyph-name="wangluo" unicode="&#59301;" d="M512 832c247.424 0 448-200.576 448-448S759.424-64 512-64h-0.0016C264.576-64 64 136.576 64 384S264.576 832 512 832z m126.1168-632.2848l-1.8912-0.2384C596.7808 194.608 555.1008 192 512 192c-43.792 0-86.1136 2.6928-126.1184 7.712 8.6784-42.1216 20.3136-80.5504 34.4736-113.5872C449.3984 18.352 484.208-16 512-16h-0.0032c27.7952 0 62.6048 34.352 91.648 102.1248 14.16 33.0368 25.7968 71.4672 34.472 113.5904zM123.5152 288.312c35.3616-144.0448 148.7456-257.4288 292.7872-292.792-35.8352 48.1728-64.3824 122.5664-80.8224 211.952-89.3936 16.448-163.7952 44.9968-211.9648 80.84z m776.9664 0l-0.4848-0.3632c-48.184-35.6736-122.384-64.0848-211.4784-80.4704-16.4384-89.392-44.984-163.7856-80.824-211.9552 144.0448 35.36 257.4272 148.744 292.7872 292.7872zM512 528c-46.6912 0-92.0864-3.224-134.7088-9.2912C371.224 476.0864 368 430.6928 368 384c0-46.6912 3.224-92.0864 9.2912-134.7088C419.9136 243.224 465.3072 240 512 240c46.6912 0 92.0864 3.224 134.7088 9.2912C652.776 291.9136 656 337.3072 656 384c0 46.6912-3.224 92.0864-9.2912 134.7088C604.0864 524.776 558.6928 528 512 528z m-184.288-17.8784l-2.4752-0.5184c-41.152-8.6208-78.7232-20.0768-111.112-33.9584C146.352 446.6016 112 411.792 112 384c0-27.792 34.352-62.6016 102.1248-91.6448 33.0384-14.16 71.4688-25.7968 113.5936-34.4736-5.024 40-7.7184 82.3264-7.7184 126.1184 0 43.792 2.6928 86.1168 7.712 126.1216z m368.5696-0.0032l0.5888-4.7488C701.5152 466.768 704 426.0624 704 384c0-43.792-2.6928-86.1168-7.712-126.1216 42.1184 8.68 80.5488 20.3168 113.5872 34.4768C877.648 321.3984 912 356.208 912 384c0 27.792-34.352 62.6016-102.1248 91.6448-33.0384 14.16-71.4688 25.7968-113.5936 34.4736zM416.3056 772.4768l-2.3536-0.5808c-142.9248-36.016-255.2672-148.9488-290.4336-292.208 48.168 35.8432 122.568 64.392 211.9632 80.8336 16.4384 89.392 44.9856 163.7856 80.824 211.9552z m191.392 0.0032l0.3536-0.4832c35.672-48.1824 64.0832-122.3792 80.4688-211.4704 89.3936-16.4464 163.7952-44.9952 211.9648-80.8384C865.1232 623.7328 751.7392 737.1168 607.6976 772.48zM512 784l-0.8352-0.0096c-27.6528-0.6816-62.056-35.0224-90.8096-102.1152-14.16-33.0368-25.7952-71.4656-34.472-113.5888C425.8864 573.3072 468.208 576 512 576c43.792 0 86.1136-2.6928 126.1184-7.712-8.6784 42.1216-20.3136 80.5504-34.4736 113.5872C574.6016 749.648 539.792 784 512 784z"  horiz-adv-x="1024" />

    
    <glyph glyph-name="lvhangxiang" unicode="&#59302;" d="M640 808c34.992 0 63.4256-28.0832 63.992-62.9424L704 744v-104h160c35.3456 0 64-28.6544 64-64v-544c0-35.3456-28.6544-64-64-64H160c-35.3456 0-64 28.6544-64 64V576c0 35.3456 28.6544 64 64 64h160V744c0 34.992 28.0832 63.4256 62.9424 63.992L384 808h256z m224-216H160c-8.8368 0-16-7.1632-16-16v-544c0-8.8368 7.1632-16 16-16h704c8.8368 0 16 7.1632 16 16V576c0 8.8368-7.1632 16-16 16z m-520-144c13.2544 0 24-10.7456 24-24v-272c0-13.2544-10.7456-24-24-24-13.2544 0-24 10.7456-24 24V424c0 13.2544 10.7456 24 24 24z m336 0c13.2544 0 24-10.7456 24-24v-272c0-13.2544-10.7456-24-24-24-13.2544 0-24 10.7456-24 24V424c0 13.2544 10.7456 24 24 24zM640 760H384c-8.688 0-15.7568-6.9232-15.9936-15.552L368 744v-104h288V744c0 8.688-6.9232 15.7568-15.552 15.9936L640 760z"  horiz-adv-x="1024" />

    
    <glyph glyph-name="dingyue" unicode="&#59303;" d="M832 832c35.3456 0 64-28.6544 64-64v-767.9616c0-35.3456-28.6544-64.0064-64-64.0064a64.008 64.008 0 0 0-34.8368 10.32L520.7088 125.7376a16 16 0 0 1-17.4176 0L226.8368-53.6496c-29.6496-19.24-69.2848-10.8-88.5248 18.8512A64 64 0 0 0 128 0.0384V768c0 35.3456 28.6544 64 64 64h640z m0-48H192c-8.8368 0-16-7.1632-16-16v-767.9616a16 16 0 0 1 2.5776-8.7088c4.8112-7.4128 14.72-9.5232 22.1312-4.712l276.4544 179.3872a64 64 0 0 0 69.6736 0l276.4544-179.3872a16.0016 16.0016 0 0 1 8.7088-2.5808c8.8368 0 16 7.1648 16 16.0016V768c0 8.8368-7.1632 16-16 16z m-320-152c13.2544 0 24-10.7456 24-24v-112h110.4c13.2544 0 24-10.7456 24-24 0-13.2544-10.7456-24-24-24h-110.4v-112c0-13.2544-10.7456-24-24-24-13.2544 0-24 10.7456-24 24v112h-113.6c-13.2544 0-24 10.7456-24 24 0 13.2544 10.7456 24 24 24h113.6v112c0 13.2544 10.7456 24 24 24z"  horiz-adv-x="1024" />

    
    <glyph glyph-name="zuzhijiegou" unicode="&#59304;" d="M512 800c106.0384 0 192-85.9616 192-192 0-97.9104-73.2864-178.7024-167.9968-190.5136L536 368h272c34.992 0 63.4256-28.0832 63.992-62.9424L872 304v-83.664c32.4576-10.192 56-40.5152 56-76.336 0-44.1824-35.8176-80-80-80s-80 35.8176-80 80c0 35.8208 23.544 66.144 56 76.3376V304c0 8.688-6.9232 15.7568-15.552 15.9936L808 320H536l0.0016-162.5776C586.3232 146.4352 624 101.616 624 48c0-61.856-50.144-112-112-112s-112 50.144-112 112c0 53.6176 37.6768 98.4352 88 109.4224V320H216c-8.688 0-15.7568-6.9232-15.9936-15.552L200 304v-83.664c32.4576-10.192 56-40.5152 56-76.336 0-44.1824-35.8176-80-80-80s-80 35.8176-80 80c0 35.8208 23.544 66.144 56 76.3376V304c0 34.992 28.0832 63.4256 62.9424 63.992L216 368h272v49.4864C393.2864 429.296 320 510.0896 320 608c0 106.0384 85.9616 192 192 192z m0-688c-35.3456 0-64-28.6544-64-64s28.6544-64 64-64 64 28.6544 64 64-28.6544 64-64 64z m-336 64c-17.6736 0-32-14.3264-32-32s14.3264-32 32-32 32 14.3264 32 32-14.3264 32-32 32z m672 0c-17.6736 0-32-14.3264-32-32s14.3264-32 32-32 32 14.3264 32 32-14.3264 32-32 32zM512 752c-79.5296 0-144-64.4704-144-144s64.4704-144 144-144 144 64.4704 144 144-64.4704 144-144 144z"  horiz-adv-x="1024" />

    
    <glyph glyph-name="shuju" unicode="&#59305;" d="M927.8144 181.6576c12.3168 4.8992 26.272-1.1136 31.1712-13.4304 4.8992-12.3168-1.1136-26.272-13.4304-31.1712L536.2048-25.7584a64.0224 64.0224 0 0 0-47.1568 0.0144L79.7312 137.056c-12.3168 4.8992-18.3296 18.8544-13.4304 31.1712 4.8976 12.3168 18.8544 18.3296 31.1696 13.4304L506.752 18.8704a15.9776 15.9776 0 0 1 11.7472-0.0128z m31.1712 192.9696c4.8352-12.1552-0.9584-25.904-12.9472-30.9728l-0.4832-0.1984-409.3504-162.8144a64.0192 64.0192 0 0 0-46.2976-0.32l-0.8592 0.3344L79.7312 343.456c-12.3168 4.8992-18.3296 18.8544-13.4304 31.1712 4.8336 12.1536 18.488 18.1696 30.6832 13.6176l0.4864-0.1872L506.752 225.2704a15.9872 15.9872 0 0 1 11.232-0.2064l0.5152 0.192 409.3152 162.8016c12.3168 4.8992 26.272-1.1136 31.1712-13.4304zM535.5616 796.3584l386.9152-153.2c28.7568-11.3872 42.8384-43.928 31.4512-72.6848a56 56 0 0 0-31.4512-31.4496l-386.9152-153.2a64 64 0 0 0-47.1232 0L101.5232 539.024c-28.7568 11.3856-42.8384 43.9264-31.4512 72.6832a56 56 0 0 0 31.4512 31.4496l386.9152 153.2a64 64 0 0 0 47.1232 0zM506.1104 751.728L119.1936 598.528a8 8 0 0 1 0-14.8768l386.9168-153.2a16 16 0 0 1 11.7792 0l386.9168 153.2a8 8 0 0 1 0 14.8752L517.8896 751.728a16 16 0 0 1-11.7792 0z"  horiz-adv-x="1024" />

    
    <glyph glyph-name="bijiben" unicode="&#59306;" d="M816 800c34.992 0 63.4256-28.0832 63.992-62.9424L880 736v-226.016c27.6048-7.1056 48-32.1632 48-61.984v-128c0-29.8208-20.3952-54.8784-48-61.984V32c0-34.992-28.0832-63.4256-62.9424-63.992L816-32H208c-34.992 0-63.4256 28.0832-63.992 62.9424L144 32V192H121.6c-13.2544 0-24 10.7456-24 24 0 13.2544 10.7456 24 24 24h22.4v64H121.6c-13.2544 0-24 10.7456-24 24 0 13.2544 10.7456 24 24 24h22.4v64H121.6c-13.2544 0-24 10.7456-24 24 0 13.2544 10.7456 24 24 24h22.4v64H121.6c-13.2544 0-24 10.7456-24 24 0 13.2544 10.7456 24 24 24h22.4V736c0 34.992 28.0832 63.4256 62.9424 63.992L208 800h608z m0-48H208c-8.688 0-15.7568-6.9232-15.9936-15.552L192 736v-160h25.6c13.2544 0 24-10.7456 24-24 0-13.2544-10.7456-24-24-24h-25.6v-64h25.6c13.2544 0 24-10.7456 24-24 0-13.2544-10.7456-24-24-24h-25.6v-64h25.6c13.2544 0 24-10.7456 24-24 0-13.2544-10.7456-24-24-24h-25.6v-64h25.6c13.2544 0 24-10.7456 24-24 0-13.2544-10.7456-24-24-24h-25.6v-160c0-8.688 6.9232-15.7568 15.552-15.9936l0.448-0.0064h608c8.688 0 15.7568 6.9232 15.9936 15.552L832 32V256h-128c-35.3456 0-64 28.6544-64 64v128c0 35.3456 28.6544 64 64 64h128V736c0 8.688-6.9232 15.7568-15.552 15.9936L816 752z m48-288H704c-8.8368 0-16-7.1632-16-16v-128c0-8.8368 7.1632-16 16-16h160c8.8368 0 16 7.1632 16 16v128c0 8.8368-7.1632 16-16 16z"  horiz-adv-x="1024" />

    
    <glyph glyph-name="huishou" unicode="&#59307;" d="M624 800c35.3456 0 64-28.6544 64-64v-48h216c13.2544 0 24-10.7456 24-24 0-13.2544-10.7456-24-24-24h-72v-544c0-70.6928-57.3072-128-128-128H320c-70.6928 0-128 57.3072-128 128V640H120c-13.2544 0-24 10.7456-24 24 0 13.2544 10.7456 24 24 24h216v48c0 35.3456 28.6544 64 64 64h224z m160-160H240v-544c0-44.1824 35.8176-80 80-80h384c44.1824 0 80 35.8176 80 80V640z m-272-128c13.2544 0 24-10.7456 24-24v-273.6c0-13.2544-10.7456-24-24-24-13.2544 0-24 10.7456-24 24V488c0 13.2544 10.7456 24 24 24z m-152-32c13.2544 0 24-10.7456 24-24v-208c0-13.2544-10.7456-24-24-24-13.2544 0-24 10.7456-24 24V456c0 13.2544 10.7456 24 24 24z m304 0c13.2544 0 24-10.7456 24-24v-208c0-13.2544-10.7456-24-24-24-13.2544 0-24 10.7456-24 24V456c0 13.2544 10.7456 24 24 24zM624 752H400c-8.8368 0-16-7.1632-16-16v-48h256v48c0 8.8368-7.1632 16-16 16z"  horiz-adv-x="1024" />

    
    <glyph glyph-name="pingban" unicode="&#59191;" d="M832 832c35.3456 0 64-28.6544 64-64v-768c0-35.3456-28.6544-64-64-64H192c-35.3456 0-64 28.6544-64 64V768c0 35.3456 28.6544 64 64 64h640z m0-48H192c-8.8368 0-16-7.1632-16-16v-768c0-8.8368 7.1632-16 16-16h640c8.8368 0 16 7.1632 16 16V768c0 8.8368-7.1632 16-16 16zM512 128c26.5104 0 48-21.4896 48-48 0-26.5104-21.4896-48-48-48-26.5104 0-48 21.4896-48 48 0 26.5104 21.4896 48 48 48z m104 608c13.2544 0 24-10.7456 24-24 0-13.2544-10.7456-24-24-24H408c-13.2544 0-24 10.7456-24 24 0 13.2544 10.7456 24 24 24h208z"  horiz-adv-x="1024" />

    
    <glyph glyph-name="fenxi" unicode="&#59192;" d="M800 384c13.2544 0 24-10.7456 24-24v-344h80c13.2544 0 24-10.7456 24-24 0-13.2544-10.7456-24-24-24H120c-13.2544 0-24 10.7456-24 24 0 13.2544 10.7456 24 24 24h80v152c0 13.2544 10.7456 24 24 24 13.2544 0 24-10.7456 24-24v-152h144V296c0 13.2544 10.7456 24 24 24 13.2544 0 24-10.7456 24-24v-280h144V232c0 13.2544 10.7456 24 24 24 13.2544 0 24-10.7456 24-24v-216h144V360c0 13.2544 10.7456 24 24 24zM624 800h240c34.992 0 63.4256-28.0832 63.992-62.9424L928 736v-240c0-13.2544-10.7456-24-24-24-13.088 0-23.728 10.4752-23.9952 23.4976L880 496V718.0608L621.2544 459.3136c-24.7424-24.744-64.7072-24.992-89.7552-0.7424l-0.7536 0.7424-135.432 135.432c-6.1344 6.1344-16.0112 6.2464-22.2832 0.3344l-0.344-0.336L144.9712 367.0304c-9.3728-9.3712-24.5696-9.3712-33.9424 0-9.2336 9.2352-9.3696 24.1232-0.4064 33.5248l0.4064 0.416L338.7456 628.688c24.7424 24.744 64.7072 24.992 89.7552 0.7424l0.7536-0.7424 135.432-135.432c6.1344-6.1344 16.0112-6.2464 22.2832-0.3344l0.344 0.336L846.0576 752H624c-13.088 0-23.728 10.4752-23.9952 23.4976L600 776c0 13.088 10.4752 23.728 23.4976 23.9952L624 800h240z"  horiz-adv-x="1024" />

    
    <glyph glyph-name="biaoqian" unicode="&#59193;" d="M583.9696 791.36l270.9136-0.6144c35.232-0.08 63.776-28.624 63.856-63.856l0.6144-270.912a64 64 0 0 0-18.7456-45.4016L476.784-13.248c-24.9936-24.9936-65.5168-24.9936-90.5104 0L114.7456 258.28c-24.9936 24.9936-24.9936 65.5168 0 90.5104l423.824 423.824A64 64 0 0 0 583.9696 791.36z m-0.1088-48a16 16 0 0 1-11.3504-4.6864L148.688 314.8496c-6.248-6.248-6.248-16.3792 0-22.6272l271.5296-271.5296c6.248-6.248 16.3776-6.248 22.6272 0l423.824 423.824a16 16 0 0 1 4.6864 11.3504l-0.616 270.9136c-0.0192 8.808-7.1552 15.944-15.9632 15.9648L583.8608 743.36zM672 640c53.0192 0 96-42.9808 96-96s-42.9808-96-96-96-96 42.9808-96 96 42.9808 96 96 96z m0-48c-26.5104 0-48-21.4896-48-48 0-26.5104 21.4896-48 48-48 26.5104 0 48 21.4896 48 48 0 26.5104-21.4896 48-48 48z"  horiz-adv-x="1024" />

    
    <glyph glyph-name="shalou" unicode="&#59194;" d="M872 832c13.2544 0 24-10.7456 24-24 0-13.2544-10.7456-24-24-24h-104v-177.456c0-67.0672-36.4912-128.8224-95.2368-161.1744l-111.0816-61.1744 111.328-61.536C731.6176 290.2672 768 228.5888 768 161.624V-16h104c13.2544 0 24-10.7456 24-24 0-13.2544-10.7456-24-24-24H152c-13.2544 0-24 10.7456-24 24 0 13.2544 10.7456 24 24 24h104V161.456c0 67.0672 36.4912 128.8224 95.2368 161.1744l111.08 61.176-111.328 61.5328C292.3824 477.7344 256 539.4128 256 606.3776V784H152c-13.2544 0-24 10.7456-24 24 0 13.2544 10.7456 24 24 24h720zM512.4 356.5888l-138.0064-76.0032A136 136 0 0 1 304 161.456V-16h416V161.6224a136 136 0 0 1-70.2096 119.0272l-137.3904 75.9392zM720 784H304v-177.6224a136 136 0 0 1 70.2096-119.0272l137.3904-75.9392 138.0064 76.0032A136 136 0 0 1 720 606.544V784z"  horiz-adv-x="1024" />

    
    <glyph glyph-name="jingshi" unicode="&#59195;" d="M544.7296 783.4144a64 64 0 0 0 23.4256-23.424l383.1296-663.6c17.6736-30.6112 7.184-69.7536-23.4256-87.4272a64 64 0 0 0-32-8.5744H129.6c-35.3456 0-64 28.6544-64 64a64 64 0 0 0 8.5744 32l383.1296 663.6c17.6736 30.6112 56.816 41.0992 87.4256 23.4256z m-45.856-47.424L115.744 72.3888a16 16 0 0 1-2.144-8c0-8.8384 7.1632-16 16-16h766.2592a16 16 0 0 1 8 2.144c7.6528 4.416 10.2752 14.2016 5.856 21.856l-383.1296 663.6a16 16 0 0 1-5.856 5.856c-7.6528 4.4176-17.4384 1.7952-21.856-5.856zM512 224c26.5104 0 48-21.4896 48-48 0-26.5104-21.4896-48-48-48-26.5104 0-48 21.4896-48 48 0 26.5104 21.4896 48 48 48z m0 352c13.2544 0 24-10.7456 24-24v-256c0-13.2544-10.7456-24-24-24-13.2544 0-24 10.7456-24 24V552c0 13.2544 10.7456 24 24 24z"  horiz-adv-x="1024" />

    
    <glyph glyph-name="weizhi" unicode="&#59196;" d="M512 832c176.7312 0 320-143.2688 320-320 0-160.8192-94.7136-347.6848-284.1392-560.5968a48 48 0 0 0-3.9552-3.9552c-19.8064-17.6208-50.1456-15.8512-67.7664 3.9552C286.7136 164.3152 192 351.1792 192 512c0 176.7312 143.2688 320 320 320z m0-48c-150.2208 0-272-121.7792-272-272 0-146.8528 89.6544-323.7376 272-528.6912C694.3456 188.2624 784 365.1488 784 512c0 150.2208-121.7792 272-272 272z m0-144c70.6928 0 128-57.3072 128-128s-57.3072-128-128-128-128 57.3072-128 128 57.3072 128 128 128z m0-48c-44.1824 0-80-35.8176-80-80s35.8176-80 80-80 80 35.8176 80 80-35.8176 80-80 80z"  horiz-adv-x="1024" />

    
    <glyph glyph-name="naozhong" unicode="&#59197;" d="M512 736c212.0768 0 384-171.9232 384-384S724.0768-32 512-32 128 139.9232 128 352s171.9232 384 384 384z m0-48c-185.568 0-336-150.432-336-336s150.432-336 336-336 336 150.432 336 336-150.432 336-336 336z m0-88c13.088 0 23.728-10.4752 23.9952-23.4976L536 576v-200h144c13.2544 0 24-10.7456 24-24 0-13.088-10.4752-23.728-23.4976-23.9952L680 328H512c-13.088 0-23.728 10.4752-23.9952 23.4976L488 352V576c0 13.2544 10.7456 24 24 24zM284.1104 792.9104c9.3712-9.3728 9.3712-24.5696 0-33.9424l-147.0784-147.0784c-9.3728-9.3712-24.5696-9.3712-33.9424 0-9.3712 9.3728-9.3712 24.5696 0 33.9424l147.0784 147.0784c9.3728 9.3712 24.5696 9.3712 33.9424 0z m489.7216 0l147.0784-147.0784c9.3712-9.3728 9.3712-24.5696 0-33.9424-9.3728-9.3712-24.5696-9.3712-33.9424 0l-147.0784 147.0784c-9.3712 9.3728-9.3712 24.5696 0 33.9424 9.3728 9.3712 24.5696 9.3712 33.9424 0z"  horiz-adv-x="1024" />

    
    <glyph glyph-name="erweima" unicode="&#59198;" d="M416 352c35.3456 0 64-28.6544 64-64v-256c0-35.3456-28.6544-64-64-64H160c-35.3456 0-64 28.6544-64 64V288c0 35.3456 28.6544 64 64 64h256z m488-32c13.2544 0 24-10.7456 24-24v-304c0-13.2544-10.7456-24-24-24-13.2544 0-24 10.7456-24 24V296c0 13.2544 10.7456 24 24 24z m-336-64c13.2544 0 24-10.7456 24-24v-240c0-13.2544-10.7456-24-24-24-13.2544 0-24 10.7456-24 24V232c0 13.2544 10.7456 24 24 24z m168-64c13.2544 0 24-10.7456 24-24v-176c0-13.2544-10.7456-24-24-24-13.2544 0-24 10.7456-24 24V168c0 13.2544 10.7456 24 24 24z m-320 112H160c-8.8368 0-16-7.1632-16-16v-256c0-8.8368 7.1632-16 16-16h256c8.8368 0 16 7.1632 16 16V288c0 8.8368-7.1632 16-16 16z m0 496c35.3456 0 64-28.6544 64-64v-256c0-35.3456-28.6544-64-64-64H160c-35.3456 0-64 28.6544-64 64V736c0 35.3456 28.6544 64 64 64h256z m448 0c35.3456 0 64-28.6544 64-64v-256c0-35.3456-28.6544-64-64-64H608c-35.3456 0-64 28.6544-64 64V736c0 35.3456 28.6544 64 64 64h256zM416 752H160c-8.8368 0-16-7.1632-16-16v-256c0-8.8368 7.1632-16 16-16h256c8.8368 0 16 7.1632 16 16V736c0 8.8368-7.1632 16-16 16z m448 0H608c-8.8368 0-16-7.1632-16-16v-256c0-8.8368 7.1632-16 16-16h256c8.8368 0 16 7.1632 16 16V736c0 8.8368-7.1632 16-16 16z"  horiz-adv-x="1024" />

    
    <glyph glyph-name="shaixuan" unicode="&#59199;" d="M862.376 800a64 64 0 0 0 46.7248-20.264c24.1552-25.8048 22.816-66.3056-2.9888-90.4608L640 440.1856v-335.5552a64 64 0 0 0-32.624-55.7808l-128-72c-30.8064-17.328-69.8272-6.4032-87.1568 24.4032a64 64 0 0 0-8.2192 31.376V439.4432L117.0928 689.2752a64.0304 64.0304 0 0 0-20.2656 45.84V736c0 35.3456 28.656 64 64 64h701.5472z m-712.48-75.68L416.8 474.4832a48 48 0 0 0 15.1968-35.0432L432 32.6304a16 16 0 0 1 2.0544-7.8448c4.3328-7.7008 14.088-10.432 21.7904-6.1008l128 72a16 16 0 0 1 8.1552 13.9456V440.1856a48 48 0 0 0 15.1968 35.0432L873.312 724.32c6.4512 6.0384 6.7856 16.1648 0.7472 22.616a16 16 0 0 1-11.68 5.0656H160.8272c-8.8 0-15.9392-7.104-16-15.888v-0.4448a16.016 16.016 0 0 1 5.0672-11.3488z"  horiz-adv-x="1024" />

    
    <glyph glyph-name="zhibo" unicode="&#59200;" d="M704 704c35.3456 0 64-28.6544 64-64v-115.424a8 8 0 0 1 13.6608-5.6528l82.712 82.8352c21.8528 21.8848 57.3104 21.912 79.1952 0.0576A56 56 0 0 0 960 562.1888v-356.816c0-30.928-25.072-56-56-56a56 56 0 0 0-39.7136 16.5184l-82.6128 83.0992a8 8 0 0 1-13.6736-5.64V128c0-35.3456-28.6544-64-64-64H128c-35.3456 0-64 28.6544-64 64V640c0 35.3456 28.6544 64 64 64h576z m0-48H128c-8.8368 0-16-7.1632-16-16v-512c0-8.8368 7.1632-16 16-16h576c8.8368 0 16 7.1632 16 16v115.3504a56 56 0 0 0 16.5184 39.7136c21.9328 21.8048 57.3904 21.7008 79.1952-0.232l82.6128-83.0992a8 8 0 0 1 13.6736 5.64v356.816a8 8 0 0 1-13.6608 5.6528l-82.712-82.8336A56 56 0 0 0 776 468.576c-30.928 0-56 25.072-56 56V640c0 8.8368-7.1632 16-16 16z m-340.4896-129.2896a56 56 0 0 0 28-7.504l148.8-85.9088c26.784-15.464 35.96-49.712 20.496-76.4976a56 56 0 0 0-20.496-20.496l-148.8-85.9104c-26.784-15.464-61.0336-6.288-76.4976 20.496a56 56 0 0 0-7.504 28V470.7104c0 30.928 25.072 56 56 56z m0-48a8 8 0 0 1-8-8v-171.8208a8 8 0 0 1 12-6.928l148.8 85.9104a8 8 0 0 1 0 13.856l-148.8 85.9104a8 8 0 0 1-4 1.072z"  horiz-adv-x="1024" />

    
    <glyph glyph-name="wenjian" unicode="&#59201;" d="M128 0c-35.3456 0-64 28.6544-64 64V704c0 35.3456 28.6544 64 64 64h337.1136a64 64 0 0 0 55.1744-31.568L576.968 640h318.2688c35.3456 0 64-28.6544 64-64a64 64 0 0 0-1.6624-14.4896l-119.0048-512C831.8304 20.5184 805.9952 0 776.2304 0H128z m767.2368 592H257.3696a16 16 0 0 1-15.584-12.3776l-119.008-512a16 16 0 0 1-0.4144-3.6224c0-8.8368 7.1632-16 16-16h637.8672a16 16 0 0 1 15.584 12.3776l119.008 512a16 16 0 0 1 0.4144 3.6224c0 8.8368-7.1632 16-16 16z m-430.1232 128H128c-8.8368 0-16-7.1632-16-16v-470.7312l83.0304 357.2208c6.7392 28.992 32.5744 49.5104 62.3392 49.5104h263.9216l-42.384 72.1072a16 16 0 0 1-13.28 7.8848l-0.5136 0.008z"  horiz-adv-x="1024" />

    
    <glyph glyph-name="zhoubian" unicode="&#59202;" d="M318.5424 225.6576c13.216 1.0016 24.7424-8.9024 25.744-22.1184 1.0016-13.216-8.9008-24.744-22.1184-25.744-59.4384-4.504-107.3488-15.7376-139.4176-31.7216C156.1136 132.7968 144 118.3456 144 105.6c0-5.8032 6-14.232 20.3424-24.0272 17.3392-11.8448 43.7216-23.1776 77.184-32.928C312.456 27.9824 409.04 16 512 16s199.544 11.9808 270.472 32.6464c33.464 9.7488 59.8464 21.0816 77.1856 32.9264C874 91.368 880 99.7968 880 105.6c0 12.6784-12.112 27.1424-38.6416 40.4176-31.9296 15.976-79.5312 27.1792-138.3712 31.592-13.2176 0.992-23.1296 12.5104-22.1376 25.728 0.992 13.2176 12.5088 23.1296 25.728 22.1376 64.5952-4.8448 118.096-17.4352 156.2592-36.5312C903.9632 168.3664 928 139.6592 928 105.6c0-24.5504-15.1392-45.816-41.2688-63.664-22.0832-15.0848-52.9024-28.3232-90.832-39.3744C720.2912-19.4656 619.2512-32 512-32c-107.2512 0-208.2912 12.5344-283.8992 34.5616-37.9296 11.0512-68.7488 24.2896-90.832 39.376C111.1408 59.7824 96 81.048 96 105.6c0 34.1488 24.0704 62.864 65.3376 83.4336 38.2832 19.0816 92.0496 31.6864 157.2048 36.624zM512 800c141.3856 0 256-114.6144 256-256 0-98.792-72.7424-232.8128-218.2272-402.0592a48 48 0 0 0-4.88-4.912c-19.9952-17.408-50.3136-15.312-67.7216 4.6816C329.7232 311.0672 256 445.1632 256 544c0 141.3856 114.6144 256 256 256z m0-48c-114.8752 0-208-93.1248-208-208 0-84.08 68.9344-209.464 209.3728-370.7696C651.968 334.4624 720 459.8032 720 544c0 114.8752-93.1248 208-208 208z m0-96c61.856 0 112-50.144 112-112s-50.144-112-112-112-112 50.144-112 112 50.144 112 112 112z m0-48c-35.3456 0-64-28.6544-64-64s28.6544-64 64-64 64 28.6544 64 64-28.6544 64-64 64z"  horiz-adv-x="1024" />

    
    <glyph glyph-name="jingbao" unicode="&#59203;" d="M120-33.6c-13.2544 0-24 10.7456-24 24 0 13.2544 10.7456 24 24 24h72V318.4c0 176.7312 143.2688 320 320 320s320-143.2688 320-320v-304h72c13.2544 0 24-10.7456 24-24 0-13.2544-10.7456-24-24-24H120z m392 624c-150.2208 0-272-121.7792-272-272v-304h120v121.6c0 13.2544 10.7456 24 24 24 13.2544 0 24-10.7456 24-24v-121.6h376V318.4c0 150.2208-121.7792 272-272 272z m-324.0576 57.1984l45.256-45.256c9.3728-9.3712 9.3728-24.568 0-33.9408-9.3728-9.3728-24.5696-9.3728-33.9408 0L154 613.6576c-9.3728 9.3712-9.3728 24.568 0 33.9408 9.3728 9.3728 24.5696 9.3728 33.9408 0z m683.656 0c9.3728-9.3728 9.3728-24.5696 0-33.9408l-45.256-45.256c-9.3712-9.3728-24.568-9.3728-33.9408 0-9.3728 9.3728-9.3728 24.5696 0 33.9408l45.256 45.256c9.3712 9.3728 24.568 9.3728 33.9408 0zM512 800c13.2544 0 24-10.7456 24-24v-64c0-13.2544-10.7456-24-24-24-13.2544 0-24 10.7456-24 24V776c0 13.2544 10.7456 24 24 24z"  horiz-adv-x="1024" />

    
    <glyph glyph-name="weixin" unicode="&#59204;" d="M500.3856 530.408c23.2288 0 38.5488 15.3344 38.5488 38.5808 0 23.248-15.32 38.0864-38.5488 38.0864-23.2272 0-46.4544-14.8384-46.4544-38.0864 0.4928-22.752 23.7216-38.5808 46.4544-38.5808z m-214.9808 77.1616c-23.2272 0-46.4544-14.8384-46.4544-38.0864s23.2272-38.5792 46.4544-38.5792c22.7344 0 38.5488 15.3328 38.5488 38.5792 0 22.752-15.32 38.0864-38.5488 38.0864zM960 284.5808c0 121.6768-112.68 225.0544-251.0576 235.936 0 1.4832 0.4944 2.9664 0 4.4512C681.2672 654.5584 541.8992 752 385.2352 752 208.3088 752 64 628.344 64 476.496c0-81.6144 41.5136-154.8192 120.5872-212.6896l-27.6768-82.6016c-1.976-5.44 0-11.376 3.9552-14.84 2.4704-2.472 5.9296-3.4608 9.3888-3.4608 1.9776 0 4.448 0.4944 6.4256 1.4832l103.2896 51.44 12.848-2.472c31.6304-6.4304 59.3056-12.3664 92.912-12.3664 9.8848 0 37.0656 3.4624 39.536 6.432 37.0672-92.992 139.8624-160.2592 260.448-160.2592 31.136 0 62.272 7.4192 90.4416 14.344l79.568-43.5264c1.976-0.9904 4.448-1.9792 6.9184-1.9792 2.9648 0 6.424 0.9888 8.896 2.968 4.448 3.4624 6.424 9.3968 4.448 14.8384l-20.264 67.7632C922.9344 155.9792 960 220.28 960 284.5808z m-575.048-39.1984c-28.904 0-52.9072 4.896-81.3216 10.768l-16.1648 3.4256c-2.9408 0.4896-5.88 0-8.3296-0.9792l-71.5216-35.728 18.6144 55.7952c1.96 5.384 0 11.2576-4.8976 14.6832-72.504 49.9216-109.2448 111.1008-109.2448 181.5792 0 126.7616 121.9808 229.5424 272.376 229.5424 132.7584 0 250.3296-78.7984 274.824-185.984-139.1264-1.9568-251.8-107.6752-251.8-221.712 0-17.1552 0.464-33.384 5.0112-49.5872 0.0816-0.2912-1.2624-0.5664-4.032-0.824-8.328-0.4896-15.1856-0.9792-23.5136-0.9792z m433.12-114.0864c-4.416-3.4208-6.3776-8.7952-4.416-14.1696l12.2656-40.5504-50.5312 27.36c-1.9632 0.976-3.9248 1.4656-6.3792 1.4656-0.9808 0-1.9616 0-2.944-0.488-26.9824-6.84-54.9456-13.68-82.4192-13.68-126.576 0-229.6 86.9648-229.6 193.472 0 106.5056 103.024 193.472 229.6 193.472 124.1216 0 229.6-88.432 229.6-193.472-0.4912-53.2544-34.3424-107.9728-95.176-153.4096zM600.7104 384.496c-15.32 0-30.64-15.3344-30.64-30.6688 0-15.3328 15.32-30.6656 30.64-30.6656 23.2272 0 38.5488 15.3328 38.5488 30.6656-0.496 15.3344-15.8144 30.6672-38.5488 30.6672z m168.5248 0c-15.32 0-30.64-15.3344-30.64-30.6688 0-15.3328 15.32-30.6656 30.64-30.6656 23.2288 0 38.5488 15.3328 38.5488 30.6656 0 15.3344-15.32 30.6672-38.5488 30.6672z"  horiz-adv-x="1024" />

    
    <glyph glyph-name="cunchu" unicode="&#59205;" d="M623.616 800a64 64 0 0 0 45.3328-18.824l240.384-241.2144A64 64 0 0 0 928 494.7856V32c0-35.3456-28.6544-64-64-64H160c-35.3456 0-64 28.6544-64 64V736c0 35.3456 28.6544 64 64 64h463.616z m0-48H160c-8.8368 0-16-7.1632-16-16v-704c0-8.8368 7.1632-16 16-16h112V256c0 35.3456 28.6544 64 64 64h352c35.3456 0 64-28.6544 64-64v-240h112c8.8368 0 16 7.1632 16 16V494.7856a16 16 0 0 1-4.6672 11.2944L634.9488 747.2944A16 16 0 0 1 623.616 752zM688 272H336c-8.8368 0-16-7.1632-16-16v-240h384V256c0 8.8368-7.1632 16-16 16z m-72-96c13.2544 0 24-10.7456 24-24 0-13.2544-10.7456-24-24-24H408c-13.2544 0-24 10.7456-24 24 0 13.2544 10.7456 24 24 24h208z m-128 464c13.2544 0 24-10.7456 24-24 0-13.2544-10.7456-24-24-24H296c-13.2544 0-24 10.7456-24 24 0 13.2544 10.7456 24 24 24h192z"  horiz-adv-x="1024" />

    
    <glyph glyph-name="ditu" unicode="&#59206;" d="M306.112 256c13.256 0 24-10.7456 24-24 0-13.2544-10.744-24-24-24h-82.848a8 8 0 0 1-7.4272-5.0288l-70.4-176A8 8 0 0 1 152.8656 16h718.2688a8 8 0 0 1 7.4288 10.9712l-70.4 176a8 8 0 0 1-7.4288 5.0288h-82.0032c-13.2544 0-24 10.7456-24 24 0 13.2544 10.7456 24 24 24h82.0032a56 56 0 0 0 51.9952-35.2016l70.4-176c11.4864-28.7168-2.48-61.3072-31.1968-72.7936A56 56 0 0 0 871.1344-32H152.8656c-30.928 0-56 25.072-56 56a56 56 0 0 0 4.0048 20.7984l70.4 176A56 56 0 0 0 223.2656 256zM512 800c141.3856 0 256-114.6144 256-256 0-98.792-72.7424-232.8128-218.2272-402.0592a48 48 0 0 0-4.88-4.912c-19.9952-17.408-50.3136-15.312-67.7216 4.6816C329.7232 311.0672 256 445.1632 256 544c0 141.3856 114.6144 256 256 256z m0-48c-114.8752 0-208-93.1248-208-208 0-84.08 68.9344-209.464 209.3728-370.7696C651.968 334.4624 720 459.8032 720 544c0 114.8752-93.1248 208-208 208z m0-96c61.856 0 112-50.144 112-112s-50.144-112-112-112-112 50.144-112 112 50.144 112 112 112z m0-48c-35.3456 0-64-28.6544-64-64s28.6544-64 64-64 64 28.6544 64 64-28.6544 64-64 64z"  horiz-adv-x="1024" />

    
    <glyph glyph-name="rili" unicode="&#59207;" d="M680 800c13.2544 0 24-10.7456 24-24v-56h160c35.3456 0 64-28.6544 64-64v-624c0-35.3456-28.6544-64-64-64H160c-35.3456 0-64 28.6544-64 64V656c0 35.3456 28.6544 64 64 64h160V776c0 13.2544 10.7456 24 24 24 13.2544 0 24-10.7456 24-24v-56h288V776c0 13.2544 10.7456 24 24 24zM144 488v-456c0-8.8368 7.1632-16 16-16h704c8.8368 0 16 7.1632 16 16V488H144z m600-296c13.2544 0 24-10.7456 24-24 0-13.2544-10.7456-24-24-24H280c-13.2544 0-24 10.7456-24 24 0 13.2544 10.7456 24 24 24h464z m0 176c13.2544 0 24-10.7456 24-24 0-13.2544-10.7456-24-24-24H280c-13.2544 0-24 10.7456-24 24 0 13.2544 10.7456 24 24 24h464zM144 536h736v120c0 8.8368-7.1632 16-16 16H704v-56c0-13.2544-10.7456-24-24-24-13.2544 0-24 10.7456-24 24v56H368v-56c0-13.2544-10.7456-24-24-24-13.2544 0-24 10.7456-24 24v56H160c-8.8368 0-16-7.1632-16-16v-120z"  horiz-adv-x="1024" />

    
    <glyph glyph-name="tupian" unicode="&#59208;" d="M896 768c35.3456 0 64-28.6544 64-64v-640c0-35.3456-28.6544-64-64-64H128c-35.3456 0-64 28.6544-64 64V704c0 35.3456 28.6544 64 64 64h768zM227.7152 223.0128L112 107.2992V64c0-8.8368 7.1632-16 16-16h331.2976L284.2848 223.0128c-15.6208 15.6208-40.9488 15.6208-56.5696 0z m448 129.6l-226.576-226.5728L527.1808 48H896c8.8368 0 16 7.1632 16 16v108.8976L732.2848 352.6128c-15.6208 15.6208-40.9488 15.6208-56.5696 0zM896 720H128c-8.8368 0-16-7.1632-16-16v-528.8192l81.776 81.7728c34.3648 34.368 90.0832 34.368 124.448 0l96.976-96.9728 226.576 226.5728c34.3648 34.368 90.0832 34.368 124.448 0L912 240.7808V704c0 8.8368-7.1632 16-16 16z m-544-145.6c53.0192 0 96-42.9808 96-96s-42.9808-96-96-96-96 42.9808-96 96 42.9808 96 96 96z m0-48c-26.5104 0-48-21.4896-48-48 0-26.5104 21.4896-48 48-48 26.5104 0 48 21.4896 48 48 0 26.5104-21.4896 48-48 48z"  horiz-adv-x="1024" />

    
    <glyph glyph-name="shipin" unicode="&#59209;" d="M896 768c35.3456 0 64-28.6544 64-64v-640c0-35.3456-28.6544-64-64-64H128c-35.3456 0-64 28.6544-64 64V704c0 35.3456 28.6544 64 64 64h768z m0-48H128c-8.8368 0-16-7.1632-16-16v-640c0-8.8368 7.1632-16 16-16h768c8.8368 0 16 7.1632 16 16V704c0 8.8368-7.1632 16-16 16zM444.8 556.3936a56 56 0 0 0 28-7.5024l201.6-116.3936c26.784-15.464 35.9616-49.712 20.496-76.4976a56 56 0 0 0-20.496-20.496l-201.6-116.3952c-26.784-15.464-61.0336-6.288-76.496 20.496a56 56 0 0 0-7.504 28V500.3952c0 30.928 25.072 56 56 56z m0-48a8 8 0 0 1-8-8v-232.7872a8 8 0 0 1 12-6.928l201.6 116.3936a8 8 0 0 1 0 13.856l-201.6 116.3936a8 8 0 0 1-4 1.072z"  horiz-adv-x="1024" />

    
    <glyph glyph-name="yinpin" unicode="&#59210;" d="M896 768c35.3456 0 64-28.6544 64-64v-640c0-35.3456-28.6544-64-64-64H128c-35.3456 0-64 28.6544-64 64V704c0 35.3456 28.6544 64 64 64h768z m0-48H128c-8.8368 0-16-7.1632-16-16v-640c0-8.8368 7.1632-16 16-16h768c8.8368 0 16 7.1632 16 16V704c0 8.8368-7.1632 16-16 16z m-232-80c30.7088 0 55.4992-19.4096 55.992-50.2624L720 588.8v-310.4c0-53.0192-42.9808-96-96-96s-96 42.9808-96 96 42.9808 96 96 96c17.4864 0 33.88-4.6752 48-12.8432v118.1904l-256-53.8944V214.4c0-53.0192-42.9808-96-96-96s-96 42.9808-96 96 42.9808 96 96 96c17.4864 0 33.88-4.6752 48-12.8432V524.8c0 15.4048 6.2592 28.7536 17.3536 38.6992 8.6 7.7088 19.5488 12.984 32.3552 16.4624l0.272 0.072 0.272 0.0672 240 59.2A24 24 0 0 0 664 640zM320 262.4c-26.5104 0-48-21.4896-48-48 0-26.5104 21.4896-48 48-48 26.5104 0 48 21.4896 48 48 0 26.5104-21.4896 48-48 48z m304 64c-26.5104 0-48-21.4896-48-48 0-26.5104 21.4896-48 48-48 26.5104 0 48 21.4896 48 48 0 26.5104-21.4896 48-48 48z m42.4288 265.48c-53.9568-13.248-132.752-32.6832-236.3888-58.3088-6.0304-1.664-14.04-3.648-14.04-8.7712v-50.9472l256 53.8944V588.8c0 2.256-1.8272 4-5.5712 3.08z"  horiz-adv-x="1024" />

    
    <glyph glyph-name="rizhi" unicode="&#59211;" d="M832 832c35.3456 0 64-28.6544 64-64v-768c0-35.3456-28.6544-64-64-64H192c-35.3456 0-64 28.6544-64 64V768c0 35.3456 28.6544 64 64 64h640z m0-48H192c-8.8368 0-16-7.1632-16-16v-768c0-8.8368 7.1632-16 16-16h640c8.8368 0 16 7.1632 16 16V768c0 8.8368-7.1632 16-16 16z m-152-592c13.2544 0 24-10.7456 24-24 0-13.2544-10.7456-24-24-24H344c-13.2544 0-24 10.7456-24 24 0 13.2544 10.7456 24 24 24h336z m0 160c13.2544 0 24-10.7456 24-24 0-13.2544-10.7456-24-24-24H344c-13.2544 0-24 10.7456-24 24 0 13.2544 10.7456 24 24 24h336z m0 144c13.2544 0 24-10.7456 24-24 0-13.2544-10.7456-24-24-24H344c-13.2544 0-24 10.7456-24 24 0 13.2544 10.7456 24 24 24h336z m-192 144c13.2544 0 24-10.7456 24-24 0-13.2544-10.7456-24-24-24h-144c-13.2544 0-24 10.7456-24 24 0 13.2544 10.7456 24 24 24h144z"  horiz-adv-x="1024" />

    
    <glyph glyph-name="wenjianjia" unicode="&#59212;" d="M466.192 768a64 64 0 0 0 53.7952-29.3312L583.5744 640H896c35.3456 0 64-28.6544 64-64v-512c0-35.3456-28.6544-64-64-64H128c-35.3456 0-64 28.6544-64 64V704c0 35.3456 28.6544 64 64 64h338.192zM896 592H128c-8.8368 0-16-7.1632-16-16v-512c0-8.8368 7.1632-16 16-16h768c8.8368 0 16 7.1632 16 16V576c0 8.8368-7.1632 16-16 16z m-429.808 128H128c-8.8368 0-16-7.1632-16-16v-66.016A64.1184 64.1184 0 0 0 128 640h398.4704l-46.8304 72.6672a16 16 0 0 1-12.9408 7.3248l-0.5088 0.008z"  horiz-adv-x="1024" />

    
    <glyph glyph-name="changguan" unicode="&#59213;" d="M864 112c35.3456 0 64-28.6544 64-64v-16c0-35.3456-28.6544-64-64-64H160c-35.3456 0-64 28.6544-64 64v16c0 35.3456 28.6544 64 64 64h40V513.5488h-40c-35.3456 0-64 28.6544-64 64v20.3488a64 64 0 0 0 40.64 59.584L488.872 795.584a64 64 0 0 0 46.7456-0.0096l351.7664-138.0832A64 64 0 0 0 928 597.9168v-20.368c0-35.3456-28.6544-64-64-64h-40V112h40z m0-48H160c-8.8368 0-16-7.1632-16-16v-16c0-8.8368 7.1632-16 16-16h704c8.8368 0 16 7.1632 16 16v16c0 8.8368-7.1632 16-16 16zM344 513.5488h-96V112h96V513.5488z m144 0h-96V112h96V513.5488z m144 0h-96V112h96V513.5488zM506.3936 750.896L154.16 612.7936a16 16 0 0 1-10.16-14.896v-20.3488c0-8.8368 7.1632-16 16-16h704c8.8368 0 16 7.1632 16 16v20.368a16 16 0 0 1-10.1536 14.8944L518.08 750.8944a16 16 0 0 1-11.6864 0.0016zM776 513.5488h-96V112h96V513.5488z"  horiz-adv-x="1024" />

    
    <glyph glyph-name="aixin" unicode="&#59214;" d="M489.264-12.336L157.7728 319.1584c-84.352 84.352-84.352 221.1168 0 305.4704 84.352 84.352 221.1168 84.352 305.4704 0l48.7552-48.7552 48.7584 48.7552c83.5104 83.5088 218.3872 84.344 302.9248 2.5056l2.544-2.5056c84.3552-84.352 84.3552-221.1168 0-305.4704L534.736-12.3344a31.9152 31.9152 0 0 0-22.9104-9.3744h-0.216a31.9104 31.9104 0 0 0-22.3456 9.3744zM512 32.8144l320.2864 320.2848c65.5648 65.5648 65.608 171.84 0.128 237.4592l-2.2512 2.216c-65.824 63.5872-170.6336 62.744-235.4656-2.088l-48.7584-48.7552c-18.744-18.744-49.136-18.744-67.8816 0l-48.7552 48.7568c-65.608 65.608-171.9808 65.608-237.5888 0-65.608-65.608-65.608-171.9808 0-237.5888L512 32.8128z"  horiz-adv-x="1024" />

    
    <glyph glyph-name="fenxiang" unicode="&#59215;" d="M448.1088 800c13.2544 0 24-10.7456 24-24 0-13.2544-10.7456-24-24-24H160c-8.8368 0-16-7.1632-16-16v-704c0-8.8368 7.1632-16 16-16h704c8.8368 0 16 7.1632 16 16V319.224c0 13.2544 10.7456 24 24 24 13.2544 0 24-10.7456 24-24V32c0-35.3456-28.6544-64-64-64H160c-35.3456 0-64 28.6544-64 64V736c0 35.3456 28.6544 64 64 64z m256.48 0H864c34.992 0 63.4256-28.0832 63.992-62.9424L928 736v-160.3936c0-13.2544-10.7456-24-24-24-13.088 0-23.728 10.4752-23.9952 23.4976l-0.0048 0.5024v142.4528l-454.96-454.96c-9.3728-9.3728-24.5696-9.3728-33.9408 0-9.3728 9.3712-9.3728 24.568 0 33.9408L846.0592 752l-141.472-0.0016c-13.0864 0-23.728 10.4752-23.9936 23.4976l-0.0064 0.5024c0 13.088 10.4752 23.728 23.4992 23.9952l0.5008 0.0048H864z"  horiz-adv-x="1024" />

    
    <glyph glyph-name="hexiao" unicode="&#59216;" d="M768 800c34.992 0 63.4256-28.0832 63.992-62.9424L832 736v-473.9296c0-13.256-10.7456-24-24-24-13.088 0-23.728 10.4736-23.9952 23.4976l-0.0048 0.5024V736c0 8.688-6.9232 15.7568-15.552 15.9936L768 752H160c-8.688 0-15.7568-6.9232-15.9936-15.552L144 736v-704c0-8.688 6.9232-15.7568 15.552-15.9936l0.448-0.0064h328.56c13.256 0 24-10.7456 24-24 0-13.088-10.4736-23.728-23.4976-23.9952l-0.5024-0.0048H160c-34.992 0-63.4256 28.0832-63.992 62.9424L96 32V736c0 34.992 28.0832 63.4256 62.9424 63.992L160 800h608z m152.08-586.0592c9.3744-9.3728 9.3744-24.5696 0-33.9424L716.152-23.9312c-9.3712-9.3728-24.568-9.3728-33.9408 0l-131.7408 131.7408c-9.3728 9.3728-9.3728 24.5696 0 33.9408 9.3728 9.3728 24.568 9.3728 33.9408 0l114.7712-114.7696 186.96 186.96c9.3712 9.3712 24.568 9.3712 33.9408 0zM504.8912 658.4608c9.3664-9.368 9.3664-24.5552 0-33.9216L406.7616 526.4 488 526.4c13.2544 0 24-10.7456 24-24 0-13.2544-10.7456-24-24-24h-80v-57.6h80c13.2544 0 24-10.7456 24-24 0-13.2544-10.7456-24-24-24h-80v-112c0-13.2544-10.7456-24-24-24-13.2544 0-24 10.7456-24 24v112h-80c-13.2544 0-24 10.7456-24 24 0 13.2544 10.7456 24 24 24h80v57.6h-80c-13.2544 0-24 10.7456-24 24 0 13.2544 10.7456 24 24 24h81.064l-98.1248 98.1392c-9.3664 9.3664-9.3664 24.5536 0 33.9216s24.552 9.368 33.9184 0l87.056-87.0656 87.056 87.0656c9.368 9.368 24.5536 9.368 33.92 0zM712 284.8c13.2544 0 24-10.7456 24-24 0-13.2544-10.7456-24-24-24H504c-13.2544 0-24 10.7456-24 24 0 13.2544 10.7456 24 24 24h208z m0 136c13.2544 0 24-10.7456 24-24 0-13.2544-10.7456-24-24-24h-128c-13.2544 0-24 10.7456-24 24 0 13.2544 10.7456 24 24 24h128z"  horiz-adv-x="1024" />

    
    <glyph glyph-name="gonglve" unicode="&#59217;" d="M864 800c35.3456 0 64-28.6544 64-64v-704c0-35.3456-28.6544-64-64-64H160c-35.3456 0-64 28.6544-64 64V736c0 35.3456 28.6544 64 64 64h704zM272 752h-112c-8.8368 0-16-7.1632-16-16v-704c0-8.8368 7.1632-16 16-16h112V752z m592 0h-96v-197.84c0-22.0912-17.9088-40-40-40a40 40 0 0 0-25.608 9.272l-49.2704 41.0592a8 8 0 0 1-10.2432 0l-49.2704-41.0592c-16.9712-14.144-42.1936-11.8496-56.336 5.12A40 40 0 0 0 528 554.16V752H320v-736h544c8.8368 0 16 7.1632 16 16V736c0 8.8368-7.1632 16-16 16z m-144.0016 0h-144L576 571.2416l36.1504 30.1248c20.768 17.3056 50.9328 17.3056 71.6992 0L720 571.2416 719.9984 752z"  horiz-adv-x="1024" />

    
    <glyph glyph-name="liulan" unicode="&#59218;" d="M512 704c320 0 448-256 448-320s-128-320-448-320S64 320 64 384s128 320 448 320z m0-48c-69.0608 0-130.8896-12.9088-185.72-36.9584-47.664-20.904-89.2784-49.9216-124.3392-84.9824-29.6944-29.696-53.6464-62.7712-70.2704-95.04-6.96-13.5104-12.2944-26.2768-15.7536-37.2864-1.488-4.7312-2.5664-8.952-3.232-12.48-0.488-2.592-0.6848-4.44-0.6848-5.2528s0.1968-2.6608 0.6864-5.2528c0.664-3.528 1.744-7.7488 3.2304-12.48 3.4592-11.0096 8.7952-23.776 15.7536-37.2848 16.624-32.2704 40.576-65.3472 70.272-95.04 35.0592-35.0624 76.672-64.08 124.336-84.984C381.112 124.9104 442.9408 112 512 112s130.8896 12.9088 185.72 36.9584c47.664 20.904 89.2784 49.9216 124.3392 84.9824 29.6944 29.696 53.6464 62.7712 70.2704 95.04 6.96 13.5104 12.2944 26.2768 15.7536 37.2864 1.488 4.7312 2.5664 8.952 3.232 12.48 0.488 2.592 0.6848 4.44 0.6848 5.2528s-0.1968 2.6608-0.6864 5.2528c-0.664 3.528-1.744 7.7488-3.2304 12.48-3.4592 11.0096-8.7952 23.776-15.7536 37.2848-16.624 32.2704-40.576 65.3472-70.272 95.04-35.0592 35.0624-76.672 64.08-124.336 84.984C642.888 643.0896 581.0592 656 512 656z m0-112c88.3648 0 160-71.6352 160-160s-71.6352-160-160-160-160 71.6352-160 160 71.6352 160 160 160z m0-48c-61.856 0-112-50.144-112-112s50.144-112 112-112 112 50.144 112 112-50.144 112-112 112z"  horiz-adv-x="1024" />

    
    <glyph glyph-name="pinglun" unicode="&#59219;" d="M896 768c35.3456 0 64-28.6544 64-64v-512c0-35.3456-28.6544-64-64-64H456.432l-149.2752-118.1024c-20.096-15.9008-49.2768-12.4992-65.1776 7.5984a46.4 46.4 0 0 0-10.0112 28.7888V128H128c-35.3456 0-64 28.6544-64 64V704c0 35.3456 28.6544 64 64 64h768z m0-48H128c-8.8368 0-16-7.1632-16-16v-512c0-8.8368 7.1632-16 16-16h127.968c13.2544 0 24-10.7456 24-24v-102.408l153.2272 121.2288a24 24 0 0 0 14.8912 5.1792H896c8.8368 0 16 7.1632 16 16V704c0 8.8368-7.1632 16-16 16zM512 496c26.5104 0 48-21.4896 48-48 0-26.5104-21.4896-48-48-48-26.5104 0-48 21.4896-48 48 0 26.5104 21.4896 48 48 48z m-192 0c26.5104 0 48-21.4896 48-48 0-26.5104-21.4896-48-48-48-26.5104 0-48 21.4896-48 48 0 26.5104 21.4896 48 48 48z m384 0c26.5104 0 48-21.4896 48-48 0-26.5104-21.4896-48-48-48-26.5104 0-48 21.4896-48 48 0 26.5104 21.4896 48 48 48z"  horiz-adv-x="1024" />

    
    <glyph glyph-name="VR" unicode="&#59220;" d="M896 704c35.3456 0 64-28.6544 64-64v-512c0-35.3456-28.6544-64-64-64h-112.712a64 64 0 0 0-41.816 15.552L522.488 268.5552a16 16 0 0 1-20.9248-0.0144l-218.352-188.9392A64 64 0 0 0 241.336 64H128c-35.3456 0-64 28.6544-64 64V640c0 35.3456 28.6544 64 64 64h768z m0-48H128c-8.8368 0-16-7.1632-16-16v-512c0-8.8368 7.1632-16 16-16h113.3344a16 16 0 0 1 10.4704 3.9008l218.352 188.9392c24.0176 20.784 59.648 20.808 83.6928 0.0528L772.8336 115.888a16 16 0 0 1 10.4544-3.888H896c8.8368 0 16 7.1632 16 16V640c0 8.8368-7.1632 16-16 16z m-576-80c70.6928 0 128-57.3072 128-128s-57.3072-128-128-128-128 57.3072-128 128 57.3072 128 128 128z m384 0c70.6928 0 128-57.3072 128-128s-57.3072-128-128-128-128 57.3072-128 128 57.3072 128 128 128z m-384-48c-44.1824 0-80-35.8176-80-80s35.8176-80 80-80 80 35.8176 80 80-35.8176 80-80 80z m384 0c-44.1824 0-80-35.8176-80-80s35.8176-80 80-80 80 35.8176 80 80-35.8176 80-80 80z"  horiz-adv-x="1024" />

    
    <glyph glyph-name="sousuo" unicode="&#59221;" d="M464 800c203.24 0 368-164.76 368-368 0-92.984-34.4864-177.912-91.3648-242.6944l178.9024-178.9008c9.3728-9.3728 9.3728-24.5696 0-33.9424-9.3728-9.3728-24.5696-9.3728-33.9424 0L706.6944 155.3648C641.912 98.4848 556.9824 64 464 64 260.76 64 96 228.76 96 432S260.76 800 464 800z m0-48C287.2688 752 144 608.7312 144 432s143.2688-320 320-320 320 143.2688 320 320S640.7312 752 464 752z"  horiz-adv-x="1024" />

    
    <glyph glyph-name="lanjie" unicode="&#59222;" d="M512 832c247.424 0 448-200.576 448-448S759.424-64 512-64 64 136.576 64 384 264.576 832 512 832zM212.6928 649.3664C150.0448 578.7552 112 485.8208 112 384c0-220.9136 179.0864-400 400-400 101.8208 0 194.7552 38.0448 265.3664 100.6928zM512 784c-101.8208 0-194.7552-38.0448-265.3664-100.6928l564.672-564.672C873.9568 189.2416 912 282.1776 912 384c0 220.9136-179.0864 400-400 400z"  horiz-adv-x="1024" />

    
    <glyph glyph-name="tishi" unicode="&#59223;" d="M512 832c247.424 0 448-200.576 448-448S759.424-64 512-64 64 136.576 64 384 264.576 832 512 832z m0-48C291.0864 784 112 604.9136 112 384s179.0864-400 400-400 400 179.0864 400 400S732.9136 784 512 784z m0-544c26.5104 0 48-21.4896 48-48 0-26.5104-21.4896-48-48-48-26.5104 0-48 21.4896-48 48 0 26.5104 21.4896 48 48 48z m0 384c13.2544 0 24-10.7456 24-24v-288c0-13.2544-10.7456-24-24-24-13.2544 0-24 10.7456-24 24V600c0 13.2544 10.7456 24 24 24z"  horiz-adv-x="1024" />

    
    <glyph glyph-name="tingzhi" unicode="&#59224;" d="M512 832c247.424 0 448-200.576 448-448S759.424-64 512-64 64 136.576 64 384 264.576 832 512 832z m0-48C291.0864 784 112 604.9136 112 384s179.0864-400 400-400 400 179.0864 400 400S732.9136 784 512 784z m-104-208c13.2544 0 24-10.7456 24-24v-336c0-13.2544-10.7456-24-24-24-13.2544 0-24 10.7456-24 24V552c0 13.2544 10.7456 24 24 24z m208 0c13.2544 0 24-10.7456 24-24v-336c0-13.2544-10.7456-24-24-24-13.2544 0-24 10.7456-24 24V552c0 13.2544 10.7456 24 24 24z"  horiz-adv-x="1024" />

    
    <glyph glyph-name="guanji" unicode="&#59225;" d="M377.3392 811.4016c12.6432 3.9808 26.12-3.0432 30.0992-15.6864 3.9792-12.6432-3.0432-26.1184-15.6864-30.0992C226.568 713.6208 112 559.8976 112 384c0-220.9136 179.0864-400 400-400s400 179.0864 400 400c0 175.288-113.776 328.6032-278.1536 381.1104-12.6272 4.032-19.592 17.5376-15.56 30.1648 4.0336 12.6256 17.5392 19.592 30.1648 15.5584C832.5808 752.0176 960 580.3216 960 384c0-247.424-200.576-448-448-448S64 136.576 64 384c0 197.0048 128.304 369.1568 313.3392 427.4016zM512 832c13.2544 0 24-10.7456 24-24v-424c0-13.2544-10.7456-24-24-24-13.2544 0-24 10.7456-24 24V808c0 13.2544 10.7456 24 24 24z"  horiz-adv-x="1024" />

    
    <glyph glyph-name="jiancha" unicode="&#59226;" d="M832 832c34.992 0 63.4256-28.0832 63.992-62.9424L896 768v-448.8448c0-13.256-10.7456-24-24-24-13.088 0-23.728 10.4736-23.9952 23.4976l-0.0048 0.5024V768c0 8.688-6.9232 15.7568-15.552 15.9936L832 784H192c-8.688 0-15.7568-6.9232-15.9936-15.552L176 768v-768c0-8.688 6.9232-15.7568 15.552-15.9936l0.448-0.0064h320.4784c13.2544 0 24-10.7456 24-24 0-13.088-10.4752-23.728-23.4992-23.9952l-0.5008-0.0048H192c-34.992 0-63.4256 28.0832-63.992 62.9424L128 0V768c0 34.992 28.0832 63.4256 62.9424 63.992L192 832h640z m-152-512c92.784 0 168-75.216 168-168 0-37.736-12.4416-72.5664-33.448-100.6128l74.016-74.016c9.3728-9.3712 9.3728-24.5664 0-33.9392-9.3728-9.3728-24.568-9.3728-33.9408 0l-74.0144 74.016C752.5664-3.5584 717.736-16 680-16c-92.784 0-168 75.216-168 168s75.216 168 168 168z m0-48c-66.2736 0-120-53.7264-120-120s53.7264-120 120-120c26.3264 0 51.2448 8.4432 71.8384 23.8672l13.8912 10.4032 10.4032 13.8912C791.5568 100.7536 800 125.6736 800 152c0 66.2736-53.7264 120-120 120z m-64 224c13.2544 0 24-10.7456 24-24 0-13.2544-10.7456-24-24-24H344c-13.2544 0-24 10.7456-24 24 0 13.2544 10.7456 24 24 24h272z m64 144c13.2544 0 24-10.7456 24-24 0-13.2544-10.7456-24-24-24H344c-13.2544 0-24 10.7456-24 24 0 13.2544 10.7456 24 24 24h336z"  horiz-adv-x="1024" />

    
    <glyph glyph-name="faxian" unicode="&#59227;" d="M512 832c247.424 0 448-200.576 448-448S759.424-64 512-64 64 136.576 64 384 264.576 832 512 832z m0-48C291.0864 784 112 604.9136 112 384s179.0864-400 400-400 400 179.0864 400 400S732.9136 784 512 784z m262.7904-158.5008a40 40 0 0 0 0-31.1168l-130.36-308.7472a64 64 0 0 0-34.064-34.0656L301.616 121.2096c-20.352-8.592-43.8144 0.9392-52.408 21.2912a40 40 0 0 0 0 31.1168l130.36 308.7472a64 64 0 0 0 34.064 34.0656l308.7488 130.36c20.352 8.592 43.8144-0.9392 52.408-21.2912z m-51.88-30.5888l-290.6048-122.6992a16 16 0 0 1-8.5168-8.5168l-122.6992-290.6048 290.6048 122.6992a16 16 0 0 1 8.5168 8.5168l122.6992 290.6048zM512 432c26.5104 0 48-21.4896 48-48 0-26.5104-21.4896-48-48-48-26.5104 0-48 21.4896-48 48 0 26.5104 21.4896 48 48 48z"  horiz-adv-x="1024" />

    
    <glyph glyph-name="cuo" unicode="&#59228;" d="M512 830.4c247.424 0 448-200.576 448-448S759.424-65.6 512-65.6 64 134.976 64 382.4 264.576 830.4 512 830.4z m0-48C291.0864 782.4 112 603.3136 112 382.4s179.0864-400 400-400 400 179.0864 400 400S732.9136 782.4 512 782.4z m135.7648-262.6352c9.3728-9.3728 9.3728-24.5696 0-33.9408L545.9408 384l101.824-101.824c9.3728-9.3712 9.3728-24.568 0-33.9408-9.3728-9.3728-24.5696-9.3728-33.9408 0L512 350.0592l-101.824-101.824c-9.3712-9.3728-24.568-9.3728-33.9408 0-9.3728 9.3728-9.3728 24.5696 0 33.9408l101.824 101.824-101.824 101.824c-9.3728 9.3712-9.3728 24.568 0 33.9408 9.3728 9.3728 24.5696 9.3728 33.9408 0l101.824-101.824 101.824 101.824c9.3712 9.3728 24.568 9.3728 33.9408 0z"  horiz-adv-x="1024" />

    
    <glyph glyph-name="shoucang" unicode="&#59229;" d="M507.8304 109.8096L311.792-9.928c-26.3936-16.1216-60.8592-7.7936-76.9808 18.6a56 56 0 0 0-6.6816 42.184l53.2992 223.4432a8 8 0 0 1-2.576 7.9312l-174.4576 149.44c-23.488 20.1216-26.2192 55.472-6.0992 78.9616a56 56 0 0 0 38.056 19.3904l228.976 18.3568a8 8 0 0 1 6.7472 4.9024l88.2176 212.096c11.8768 28.5584 44.656 42.08 73.2112 30.2016a56 56 0 0 0 30.2-30.2L651.9232 553.28a8 8 0 0 1 6.7472-4.9024l228.976-18.3568c30.8304-2.472 53.8176-29.4672 51.3472-60.296a56 56 0 0 0-19.3904-38.0544l-174.456-149.44a8 8 0 0 1-2.5776-7.9328l53.2992-223.4432c7.176-30.0848-11.3952-60.288-41.4784-67.4656a56 56 0 0 0-42.184 6.6816L516.1696 109.808a8 8 0 0 1-8.3392 0z m-25.0208 40.9632a56 56 0 0 0 58.3808 0l196.0368-119.7376a8 8 0 0 1 11.952 8.6832l-53.2992 223.4432a56 56 0 0 0 18.04 55.5232l174.456 149.44a8 8 0 0 1-4.5648 14.0512l-228.976 18.3568a56 56 0 0 0-47.232 34.3152L519.3872 746.944a8 8 0 0 1-14.7744 0L416.3968 534.848a56 56 0 0 0-47.232-34.3152L140.1904 482.176a8 8 0 0 1-4.5648-14.0512l174.456-149.44a56 56 0 0 0 18.04-55.5232l-53.2992-223.4432a8 8 0 0 1 11.952-8.6832l196.0368 119.7376z"  horiz-adv-x="1024" />

    
    </font>
</defs>
</svg>
